<svg data-v-d3f97b9e="" xmlns="http://www.w3.org/2000/svg" viewBox="0 0 337 90"><!----><!----><!----><g data-v-d3f97b9e="" id="7220e292-e023-481a-8246-cff6c0900861" fill="black" transform="matrix(6.097560881055492,0,0,6.097560881055492,122.61553658965055,-17.865854026967277)"><path d="M1.47 3.68L0.10 4.86L0.10 4.86Q0.74 5.30 1.07 5.91L1.07 5.91L1.07 5.91Q2.21 5.15 2.35 4.96L2.35 4.96L2.35 4.96Q2.50 4.76 2.28 4.31L2.28 4.31L2.28 4.31Q2.07 3.86 1.47 3.68L1.47 3.68ZM0.31 7.76L0.31 7.76Q0.90 7.43 0.70 9.23L0.70 9.23L0.70 9.23Q0.66 11.37 0.71 11.88L0.71 11.88L0.71 11.88Q0.76 12.39 1.32 12.72L1.32 12.72L2.68 11.45L2.69 11.27L2.69 11.27Q2.31 11.29 2.23 10.76L2.23 10.76L2.23 10.76Q2.14 10.23 2.18 8.94L2.18 8.94L2.18 8.94Q2.21 7.65 2.20 7.25L2.20 7.25L2.20 7.25Q2.18 6.85 1.83 6.45L1.83 6.45L0.21 7.57L0.31 7.76ZM4.59 3.52L3.05 4.78L3.15 5.01L3.15 5.01Q3.68 4.85 3.86 5.69L3.86 5.69L3.85 10.02L3.85 10.02Q3.86 11.20 4.41 11.89L4.41 11.89L4.41 11.89Q4.96 12.58 5.93 12.69L5.93 12.69L5.93 12.69Q6.90 12.80 7.42 12.31L7.42 12.31L7.42 12.31Q7.94 11.83 8.43 11.17L8.43 11.17L8.43 11.17Q8.91 10.51 9.32 9.65L9.32 9.65L9.32 9.65Q9.73 8.79 9.70 7.26L9.70 7.26L9.70 7.26Q9.68 5.73 8.41 4.27L8.41 4.27L8.41 4.27Q7.85 3.64 6.86 3.50L6.86 3.50L5.48 5.00L5.48 5.00Q5.37 4.01 4.59 3.52L4.59 3.52ZM6.30 5.07L6.30 5.07L6.30 5.07Q6.70 5.02 7.33 5.67L7.33 5.67L7.33 5.67Q7.97 6.32 8.22 8.01L8.22 8.01L8.22 8.01Q8.48 9.69 7.75 11.30L7.75 11.30L7.75 11.30Q7.05 11.78 6.31 11.38L6.31 11.38L6.31 11.38Q5.56 10.98 5.46 9.71L5.46 9.71L5.48 5.63L5.48 5.63Q5.90 5.11 6.30 5.07ZM13.28 6.60L13.28 6.60L13.28 6.60Q12.22 6.43 11.29 7.26L11.29 7.26L11.29 7.26Q10.36 8.09 10.10 9.20L10.10 9.20L10.10 9.20Q9.84 10.31 10.26 11.26L10.26 11.26L10.26 11.26Q10.68 12.22 11.82 12.62L11.82 12.62L11.82 12.62Q12.75 12.93 13.75 12.18L13.75 12.18L13.75 12.18Q14.76 11.43 15.07 10.77L15.07 10.77L14.87 10.61L14.87 10.61Q13.49 11.56 12.67 11.24L12.67 11.24L12.67 11.24Q11.85 10.92 11.71 10.51L11.71 10.51L13.19 9.54L13.19 9.54Q14.64 8.65 14.49 7.70L14.49 7.70L14.49 7.70Q14.35 6.76 13.28 6.60ZM11.19 8.64L11.19 8.64L11.19 8.64Q11.18 8.14 11.55 7.78L11.55 7.78L11.55 7.78Q11.92 7.41 12.53 7.78L12.53 7.78L12.53 7.78Q13.14 8.15 13.04 8.76L13.04 8.76L13.04 8.76Q12.95 9.37 11.50 10.14L11.50 10.14L11.50 10.14Q11.35 9.80 11.28 9.47L11.28 9.47L11.28 9.47Q11.21 9.14 11.19 8.64ZM18.20 6.62L18.20 6.62L18.20 6.62Q17.82 6.77 17.49 6.99L17.49 6.99L17.49 6.99Q17.15 7.21 16.80 7.49L16.80 7.49L16.80 7.49Q14.34 9.38 15.94 11.66L15.94 11.66L15.94 11.66Q16.39 12.21 16.86 12.45L16.86 12.45L16.86 12.45Q17.32 12.69 17.97 12.70L17.97 12.70L17.97 12.70Q18.61 12.70 19.29 12.07L19.29 12.07L19.29 12.07Q19.97 11.44 20.42 10.79L20.42 10.79L20.20 10.60L20.20 10.60Q20.03 10.82 19.76 11.07L19.76 11.07L19.76 11.07Q19.48 11.32 19.05 11.32L19.05 11.32L19.05 11.32Q18.61 11.33 18.11 10.99L18.11 10.99L18.11 10.99Q16.58 10.14 16.91 8.37L16.91 8.37L16.91 8.37Q17.09 7.62 17.94 7.85L17.94 7.85L17.94 7.85Q18.68 8.12 18.96 8.98L18.96 8.98L20.30 7.93L20.30 7.93Q20.28 7.33 19.85 7.00L19.85 7.00L19.85 7.00Q19.42 6.66 19.00 6.56L19.00 6.56L19.00 6.56Q18.59 6.47 18.20 6.62ZM22.03 3.68L20.67 4.86L20.67 4.86Q21.30 5.30 21.63 5.91L21.63 5.91L21.63 5.91Q22.78 5.15 22.92 4.96L22.92 4.96L22.92 4.96Q23.06 4.76 22.85 4.31L22.85 4.31L22.85 4.31Q22.63 3.86 22.03 3.68L22.03 3.68ZM20.88 7.76L20.88 7.76Q21.46 7.43 21.26 9.23L21.26 9.23L21.26 9.23Q21.23 11.37 21.27 11.88L21.27 11.88L21.27 11.88Q21.32 12.39 21.88 12.72L21.88 12.72L23.24 11.45L23.25 11.27L23.25 11.27Q22.87 11.29 22.79 10.76L22.79 10.76L22.79 10.76Q22.70 10.23 22.74 8.94L22.74 8.94L22.74 8.94Q22.78 7.65 22.76 7.25L22.76 7.25L22.76 7.25Q22.74 6.85 22.39 6.45L22.39 6.45L20.77 7.57L20.88 7.76ZM28.67 2.93L28.67 2.93L27.34 3.85L27.34 3.85Q27.66 4.42 27.62 6.77L27.62 6.77L27.62 6.77Q27.12 6.51 26.69 6.55L26.69 6.55L26.69 6.55Q26.26 6.58 25.72 6.94L25.72 6.94L25.72 6.94Q25.19 7.30 24.57 7.91L24.57 7.91L24.57 7.91Q23.95 8.51 23.74 9.61L23.74 9.61L23.74 9.61Q23.53 10.71 24.16 11.71L24.16 11.71L24.16 11.71Q24.79 12.71 25.53 12.75L25.53 12.75L25.53 12.75Q26.27 12.78 27.73 11.28L27.73 11.28L27.73 11.28Q27.73 12.25 28.57 12.77L28.57 12.77L29.76 11.76L29.76 11.76Q29.05 11.37 29.16 7.21L29.16 7.21L29.16 7.21Q29.28 3.04 28.67 2.93ZM25.26 7.93L25.26 7.93Q26.33 7.84 26.74 8.83L26.74 8.83L27.64 8.05L27.64 8.45L27.67 8.62L27.67 10.73L27.59 10.76L27.59 10.76Q27.40 11.18 26.69 11.23L26.69 11.23L26.69 11.23Q25.98 11.29 25.40 10.33L25.40 10.33L25.40 10.33Q24.83 9.38 25.26 7.93L25.26 7.93ZM33.25 6.60L33.25 6.60L33.25 6.60Q32.18 6.43 31.25 7.26L31.25 7.26L31.25 7.26Q30.32 8.09 30.06 9.20L30.06 9.20L30.06 9.20Q29.80 10.31 30.23 11.26L30.23 11.26L30.23 11.26Q30.65 12.22 31.79 12.62L31.79 12.62L31.79 12.62Q32.72 12.93 33.72 12.18L33.72 12.18L33.72 12.18Q34.73 11.43 35.04 10.77L35.04 10.77L34.84 10.61L34.84 10.61Q33.46 11.56 32.64 11.24L32.64 11.24L32.64 11.24Q31.82 10.92 31.68 10.51L31.68 10.51L33.16 9.54L33.16 9.54Q34.60 8.65 34.46 7.70L34.46 7.70L34.46 7.70Q34.32 6.76 33.25 6.60ZM31.16 8.64L31.16 8.64L31.16 8.64Q31.14 8.14 31.52 7.78L31.52 7.78L31.52 7.78Q31.89 7.41 32.50 7.78L32.50 7.78L32.50 7.78Q33.11 8.15 33.01 8.76L33.01 8.76L33.01 8.76Q32.92 9.37 31.47 10.14L31.47 10.14L31.47 10.14Q31.32 9.80 31.25 9.47L31.25 9.47L31.25 9.47Q31.18 9.14 31.16 8.64Z"></path></g><!----><g data-v-d3f97b9e="" id="e1c88ba1-7281-4abb-a04f-7ef3f7a10c12" transform="matrix(1.032110037561642,0,0,1.032110037561642,0.3873521268992235,-6.205504243456758)" stroke="none" fill="black"><path d="M99.7 76.4L59.9 7.5c-.4-.7-1.2-1.1-2-1.1H42c-.8 0-1.6.4-2 1.1L.3 76.4c-.4.7-.4 1.6 0 2.3l8 13.8c.4.7 1.2 1.1 2 1.1h79.5c.8 0 1.6-.4 2-1.1l8-13.8c.3-.7.3-1.6-.1-2.3zM43.4 11H54L24.2 62.6c-.4.7-.4 1.6 0 2.3.4.7 1.2 1.1 2 1.1h30.5l5.3 9.2H6.3L43.4 11zM50 54.6l4 6.9h-8l4-6.9zM6.3 79.8h59.6c.8 0 1.6-.4 2-1.1s.4-1.6 0-2.3L52.7 50l5.3-9.2L85.8 89H11.6l-5.3-9.2zm83.5 6.9L59.9 35.1c-.4-.7-1.2-1.1-2-1.1s-1.6.4-2 1.1L40.7 61.5H30.1L58 13.3l37.1 64.3-5.3 9.1z"></path></g><!----><g data-v-d3f97b9e="" id="a6990d65-57db-464a-9699-c707783e6e4b" fill="black" transform="matrix(0.47938074354584775,0,0,0.47938074354584775,123.09106865215963,58.41804539846568)"><path d="M0.28 3.71L0.28 3.71L0.28 3.71Q0.28 3.50 0.53 3.50L0.53 3.50L0.53 3.50Q0.62 3.50 0.92 3.53L0.92 3.53L0.92 3.53Q1.22 3.56 1.27 3.56L1.27 3.56L1.27 3.56Q1.48 3.56 1.85 3.54L1.85 3.54L1.85 3.54Q2.21 3.53 2.32 3.53L2.32 3.53L2.32 3.53Q2.59 3.53 2.66 3.72L2.66 3.72L2.66 3.72Q2.83 4.09 3.26 5.03L3.26 5.03L3.26 5.03Q3.70 5.98 3.96 6.54L3.96 6.54L3.96 6.54Q4.21 7.10 4.62 7.97L4.62 7.97L4.62 7.97Q5.03 8.83 5.28 9.37L5.28 9.37L5.28 9.37Q5.53 9.91 5.80 10.46L5.80 10.46L5.80 10.46Q6.08 11.00 6.22 11.26L6.22 11.26L6.22 11.26Q6.37 11.52 6.41 11.52L6.41 11.52L6.41 11.52Q6.45 11.52 6.50 11.47L6.50 11.47L6.50 11.47Q6.55 11.42 6.60 11.34L6.60 11.34L6.60 11.34Q6.65 11.26 6.69 11.17L6.69 11.17L6.69 11.17Q6.72 11.09 6.78 10.96L6.78 10.96L6.78 10.96Q6.85 10.82 6.87 10.75L6.87 10.75L8.68 7.03L8.68 7.03Q8.99 6.40 9.23 5.89L9.23 5.89L9.23 5.89Q9.46 5.39 9.60 5.08L9.60 5.08L9.60 5.08Q9.74 4.77 9.84 4.55L9.84 4.55L9.84 4.55Q9.94 4.33 9.99 4.21L9.99 4.21L9.99 4.21Q10.04 4.10 10.06 4.04L10.06 4.04L10.06 4.04Q10.08 3.98 10.09 3.94L10.09 3.94L10.09 3.94Q10.11 3.91 10.12 3.88L10.12 3.88L10.12 3.88Q10.14 3.85 10.17 3.75L10.17 3.75L10.17 3.75Q10.21 3.65 10.24 3.62L10.24 3.62L10.24 3.62Q10.28 3.58 10.38 3.54L10.38 3.54L10.38 3.54Q10.49 3.50 10.65 3.50L10.65 3.50L10.65 3.50Q10.92 3.50 11.15 3.51L11.15 3.51L11.15 3.51Q11.38 3.53 11.86 3.53L11.86 3.53L11.86 3.53Q12.10 3.53 12.10 3.71L12.10 3.71L12.10 3.71Q12.10 3.85 12.01 3.91L12.01 3.91L12.01 3.91Q11.91 3.98 11.63 4.02L11.63 4.02L11.63 4.02Q11.28 4.06 11.14 4.37L11.14 4.37L11.14 4.37Q11.00 4.68 11.00 5.54L11.00 5.54L11.00 5.54Q11.00 7.43 11.09 8.97L11.09 8.97L11.09 8.97Q11.17 10.50 11.17 10.89L11.17 10.89L11.17 10.89Q11.17 12.29 11.40 12.68L11.40 12.68L11.40 12.68Q11.62 13.06 12.33 13.06L12.33 13.06L12.33 13.06Q12.43 13.06 12.51 13.13L12.51 13.13L12.51 13.13Q12.59 13.20 12.59 13.26L12.59 13.26L12.59 13.26Q12.59 13.34 12.57 13.38L12.57 13.38L12.57 13.38Q12.56 13.43 12.52 13.45L12.52 13.45L12.52 13.45Q12.47 13.48 12.43 13.48L12.43 13.48L12.43 13.48Q12.39 13.48 12.28 13.48L12.28 13.48L12.28 13.48Q11.86 13.48 11.45 13.45L11.45 13.45L11.45 13.45Q11.05 13.43 10.85 13.43L10.85 13.43L10.85 13.43Q10.46 13.43 10.04 13.46L10.04 13.46L10.04 13.46Q9.62 13.50 9.39 13.50L9.39 13.50L9.39 13.50Q9.14 13.50 9.14 13.30L9.14 13.30L9.14 13.30Q9.14 13.17 9.25 13.12L9.25 13.12L9.25 13.12Q9.37 13.06 9.51 13.05L9.51 13.05L9.51 13.05Q9.66 13.03 9.82 12.87L9.82 12.87L9.82 12.87Q9.98 12.71 10.05 12.39L10.05 12.39L10.05 12.39Q10.11 12.11 10.11 11.49L10.11 11.49L10.11 11.49Q10.11 11.05 10.09 10.42L10.09 10.42L10.09 10.42Q10.07 9.79 10.04 9.19L10.04 9.19L10.04 9.19Q10.01 8.60 9.98 8.07L9.98 8.07L9.98 8.07Q9.95 7.55 9.94 7.21L9.94 7.21L9.91 6.87L9.91 6.87Q9.91 6.27 9.79 6.27L9.79 6.27L9.79 6.27Q9.77 6.27 9.74 6.29L9.74 6.29L9.74 6.29Q9.72 6.30 9.70 6.33L9.70 6.33L9.70 6.33Q9.67 6.36 9.65 6.38L9.65 6.38L9.65 6.38Q9.62 6.41 9.59 6.47L9.59 6.47L9.59 6.47Q9.56 6.54 9.53 6.58L9.53 6.58L9.53 6.58Q9.51 6.62 9.46 6.70L9.46 6.70L9.46 6.70Q9.42 6.78 9.39 6.83L9.39 6.83L9.39 6.83Q9.37 6.89 9.32 6.99L9.32 6.99L9.32 6.99Q9.27 7.08 9.24 7.15L9.24 7.15L7.29 11.09L7.29 11.09Q6.96 11.77 6.58 12.56L6.58 12.56L6.58 12.56Q6.33 13.09 6.27 13.18L6.27 13.18L6.27 13.18Q6.22 13.27 6.13 13.27L6.13 13.27L6.13 13.27Q6.01 13.27 5.92 13.15L5.92 13.15L5.92 13.15Q5.84 13.03 5.67 12.63L5.67 12.63L5.67 12.63Q5.50 12.22 5.38 11.96L5.38 11.96L5.38 11.96Q2.81 6.75 2.74 6.65L2.74 6.65L2.74 6.65Q2.70 6.59 2.66 6.59L2.66 6.59L2.66 6.59Q2.55 6.59 2.55 7.15L2.55 7.15L2.55 7.15Q2.53 8.25 2.48 9.31L2.48 9.31L2.48 9.31Q2.42 10.37 2.42 10.85L2.42 10.85L2.42 11.48L2.42 11.48Q2.42 11.84 2.44 12.04L2.44 12.04L2.44 12.04Q2.46 12.24 2.56 12.49L2.56 12.49L2.56 12.49Q2.65 12.75 2.88 12.89L2.88 12.89L2.88 12.89Q3.12 13.03 3.50 13.08L3.50 13.08L3.50 13.08Q3.57 13.08 3.63 13.13L3.63 13.13L3.63 13.13Q3.70 13.17 3.70 13.23L3.70 13.23L3.70 13.23Q3.70 13.38 3.65 13.43L3.65 13.43L3.65 13.43Q3.61 13.48 3.49 13.48L3.49 13.48L3.49 13.48Q3.21 13.48 2.65 13.45L2.65 13.45L2.65 13.45Q2.09 13.43 2.03 13.43L2.03 13.43L2.03 13.43Q2.00 13.43 1.62 13.45L1.62 13.45L1.62 13.45Q1.25 13.47 0.88 13.47L0.88 13.47L0.88 13.47Q0.77 13.47 0.72 13.45L0.72 13.45L0.72 13.45Q0.67 13.44 0.63 13.39L0.63 13.39L0.63 13.39Q0.59 13.34 0.59 13.24L0.59 13.24L0.59 13.24Q0.59 13.13 0.71 13.09L0.71 13.09L0.71 13.09Q0.84 13.05 1.00 13.04L1.00 13.04L1.00 13.04Q1.16 13.03 1.36 12.82L1.36 12.82L1.36 12.82Q1.55 12.60 1.65 12.18L1.65 12.18L1.65 12.18Q1.72 11.87 1.82 9.74L1.82 9.74L1.82 9.74Q1.92 7.62 1.92 6.59L1.92 6.59L1.92 6.59Q1.92 5.19 1.65 4.66L1.65 4.66L1.65 4.66Q1.37 4.13 0.46 3.92L0.46 3.92L0.46 3.92Q0.28 3.88 0.28 3.71ZM20.15 13.33L20.15 13.33L20.15 13.33Q20.15 13.13 20.36 13.06L20.36 13.06L20.36 13.06Q20.80 12.89 21.14 12.31L21.14 12.31L21.14 12.31Q21.48 11.73 22.81 8.83L22.81 8.83L22.81 8.83Q24.18 5.87 25.23 3.63L25.23 3.63L25.23 3.63Q25.33 3.42 25.40 3.36L25.40 3.36L25.40 3.36Q25.48 3.30 25.65 3.30L25.65 3.30L25.65 3.30Q25.77 3.30 25.82 3.36L25.82 3.36L25.82 3.36Q25.86 3.42 26.00 3.82L26.00 3.82L26.00 3.82Q26.08 4.06 26.14 4.23L26.14 4.23L26.14 4.23Q26.21 4.40 26.35 4.77L26.35 4.77L26.35 4.77Q26.49 5.15 26.66 5.56L26.66 5.56L26.66 5.56Q27.10 6.66 28.20 9.22L28.20 9.22L28.20 9.22Q29.30 11.77 29.40 11.98L29.40 11.98L29.40 11.98Q29.64 12.46 29.93 12.71L29.93 12.71L29.93 12.71Q30.23 12.95 30.44 12.97L30.44 12.97L30.44 12.97Q30.66 12.99 30.81 13.04L30.81 13.04L30.81 13.04Q30.95 13.09 30.95 13.26L30.95 13.26L30.95 13.26Q30.95 13.47 30.58 13.47L30.58 13.47L30.58 13.47Q30.42 13.47 29.97 13.43L29.97 13.43L29.97 13.43Q29.53 13.38 29.32 13.38L29.32 13.38L29.32 13.38Q29.05 13.38 28.63 13.41L28.63 13.41L28.63 13.41Q28.21 13.44 28.01 13.44L28.01 13.44L28.01 13.44Q27.58 13.44 27.46 13.40L27.46 13.40L27.46 13.40Q27.34 13.37 27.34 13.24L27.34 13.24L27.34 13.24Q27.34 13.15 27.45 13.08L27.45 13.08L27.45 13.08Q27.57 13.02 27.69 13.00L27.69 13.00L27.69 13.00Q27.82 12.98 27.93 12.87L27.93 12.87L27.93 12.87Q28.04 12.77 28.04 12.59L28.04 12.59L28.04 12.59Q28.04 12.28 27.69 11.33L27.69 11.33L27.69 11.33Q27.34 10.37 27.10 9.93L27.10 9.93L27.10 9.93Q26.98 9.69 26.53 9.69L26.53 9.69L26.53 9.69Q26.46 9.69 25.91 9.70L25.91 9.70L25.91 9.70Q25.37 9.72 24.84 9.72L24.84 9.72L24.09 9.72L24.09 9.72Q23.46 9.72 23.30 9.79L23.30 9.79L23.30 9.79Q23.14 9.86 23.02 10.12L23.02 10.12L23.02 10.12Q22.93 10.30 22.74 10.70L22.74 10.70L22.74 10.70Q22.54 11.10 22.47 11.26L22.47 11.26L22.47 11.26Q22.40 11.41 22.30 11.65L22.30 11.65L22.30 11.65Q22.19 11.90 22.16 12.05L22.16 12.05L22.16 12.05Q22.12 12.19 22.12 12.31L22.12 12.31L22.12 12.31Q22.12 12.63 22.28 12.80L22.28 12.80L22.28 12.80Q22.44 12.96 22.64 12.98L22.64 12.98L22.64 12.98Q22.83 13.01 23.00 13.06L23.00 13.06L23.00 13.06Q23.16 13.12 23.16 13.26L23.16 13.26L23.16 13.26Q23.16 13.36 23.11 13.40L23.11 13.40L23.11 13.40Q23.07 13.45 22.92 13.45L22.92 13.45L22.92 13.45Q22.83 13.45 22.43 13.45L22.43 13.45L22.43 13.45Q22.04 13.44 21.76 13.44L21.76 13.44L21.76 13.44Q21.45 13.44 21.06 13.47L21.06 13.47L21.06 13.47Q20.68 13.50 20.55 13.50L20.55 13.50L20.55 13.50Q20.15 13.50 20.15 13.33ZM23.66 8.71L23.66 8.71L23.66 8.71Q23.66 8.89 23.79 8.93L23.79 8.93L23.79 8.93Q23.91 8.97 24.37 8.97L24.37 8.97L24.81 8.97L26.14 8.96L26.14 8.96Q26.68 8.96 26.68 8.74L26.68 8.74L26.68 8.74Q26.68 8.55 26.00 7.01L26.00 7.01L26.00 7.01Q25.31 5.46 25.13 5.46L25.13 5.46L25.13 5.46Q25.00 5.46 24.33 7.01L24.33 7.01L24.33 7.01Q23.66 8.55 23.66 8.71ZM38.51 3.71L38.51 3.71L38.51 3.71Q38.51 3.53 38.91 3.53L38.91 3.53L38.91 3.53Q39.05 3.53 39.55 3.54L39.55 3.54L39.55 3.54Q40.05 3.56 40.49 3.56L40.49 3.56L40.49 3.56Q40.74 3.56 40.95 3.54L40.95 3.54L40.95 3.54Q41.16 3.53 41.69 3.53L41.69 3.53L41.69 3.53Q41.93 3.53 41.93 3.71L41.93 3.71L41.93 3.71Q41.93 3.77 41.86 3.81L41.86 3.81L41.86 3.81Q41.79 3.85 41.66 3.91L41.66 3.91L41.66 3.91Q41.52 3.96 41.44 4.00L41.44 4.00L41.44 4.00Q41.01 4.26 41.01 5.71L41.01 5.71L41.01 5.71Q41.01 6.47 40.98 7.17L40.98 7.17L40.98 7.17Q40.96 7.87 40.96 7.90L40.96 7.90L40.96 7.90Q40.96 8.19 41.09 8.19L41.09 8.19L41.09 8.19Q41.19 8.19 42.21 7.36L42.21 7.36L42.21 7.36Q43.23 6.52 44.24 5.55L44.24 5.55L44.24 5.55Q45.25 4.58 45.25 4.27L45.25 4.27L45.25 4.27Q45.25 4.19 45.21 4.12L45.21 4.12L45.21 4.12Q45.16 4.06 45.07 4.02L45.07 4.02L45.07 4.02Q44.97 3.98 44.90 3.96L44.90 3.96L44.90 3.96Q44.83 3.93 44.70 3.91L44.70 3.91L44.70 3.91Q44.58 3.89 44.55 3.88L44.55 3.88L44.55 3.88Q44.39 3.85 44.39 3.68L44.39 3.68L44.39 3.68Q44.39 3.53 44.62 3.53L44.62 3.53L44.62 3.53Q44.65 3.53 44.77 3.54L44.77 3.54L44.77 3.54Q44.88 3.54 44.97 3.54L44.97 3.54L44.97 3.54Q45.00 3.54 45.30 3.56L45.30 3.56L45.30 3.56Q45.60 3.57 45.81 3.57L45.81 3.57L47.54 3.53L47.54 3.53Q47.82 3.53 47.82 3.71L47.82 3.71L47.82 3.71Q47.82 3.81 47.74 3.86L47.74 3.86L47.74 3.86Q47.66 3.91 47.42 3.98L47.42 3.98L47.42 3.98Q47.18 4.05 47.01 4.12L47.01 4.12L47.01 4.12Q46.94 4.14 46.33 4.54L46.33 4.54L46.33 4.54Q46.20 4.62 44.74 5.84L44.74 5.84L44.74 5.84Q43.69 6.73 42.31 7.90L42.31 7.90L42.15 8.09L42.15 8.09Q42.15 8.16 42.31 8.32L42.31 8.32L42.31 8.32Q42.97 8.97 44.02 10.01L44.02 10.01L44.02 10.01Q45.96 11.94 46.54 12.42L46.54 12.42L46.54 12.42Q47.11 12.91 47.63 12.99L47.63 12.99L47.63 12.99Q48.03 13.05 48.09 13.16L48.09 13.16L48.09 13.16Q48.10 13.19 48.10 13.24L48.10 13.24L48.10 13.24Q48.10 13.37 47.98 13.40L47.98 13.40L47.98 13.40Q47.87 13.43 47.29 13.43L47.29 13.43L45.93 13.43L45.93 13.43Q45.84 13.43 45.79 13.41L45.79 13.41L45.79 13.41Q45.74 13.40 45.69 13.37L45.69 13.37L45.69 13.37Q45.64 13.34 45.56 13.25L45.56 13.25L45.56 13.25Q45.49 13.16 45.38 13.04L45.38 13.04L45.38 13.04Q45.28 12.92 45.06 12.68L45.06 12.68L45.06 12.68Q44.84 12.43 44.58 12.17L44.58 12.17L44.58 12.17Q41.61 9.16 41.45 9.03L41.45 9.03L41.45 9.03Q41.30 8.90 41.19 8.90L41.19 8.90L41.19 8.90Q40.99 8.90 40.99 9.28L40.99 9.28L40.99 9.32L40.99 9.32Q40.99 9.37 41.00 9.45L41.00 9.45L41.00 9.45Q41.01 9.53 41.01 9.65L41.01 9.65L41.01 9.65Q41.01 9.76 41.01 9.95L41.01 9.95L41.01 9.95Q41.01 10.14 41.01 10.36L41.01 10.36L41.01 10.36Q41.01 12.19 41.22 12.57L41.22 12.57L41.22 12.57Q41.48 13.02 42.15 13.02L42.15 13.02L42.15 13.02Q42.18 13.02 42.21 13.03L42.21 13.03L42.21 13.03Q42.24 13.03 42.27 13.03L42.27 13.03L42.27 13.03Q42.36 13.03 42.46 13.08L42.46 13.08L42.46 13.08Q42.56 13.13 42.56 13.19L42.56 13.19L42.56 13.19Q42.56 13.34 42.48 13.39L42.48 13.39L42.48 13.39Q42.41 13.44 42.21 13.44L42.21 13.44L42.21 13.44Q41.79 13.44 41.43 13.41L41.43 13.41L41.43 13.41Q41.08 13.38 40.88 13.38L40.88 13.38L40.88 13.38Q40.49 13.38 40.03 13.42L40.03 13.42L40.03 13.42Q39.56 13.45 39.34 13.45L39.34 13.45L39.34 13.45Q38.84 13.45 38.84 13.30L38.84 13.30L38.84 13.24L38.84 13.24Q38.84 13.15 38.97 13.11L38.97 13.11L38.97 13.11Q39.10 13.08 39.30 13.02L39.30 13.02L39.30 13.02Q39.49 12.96 39.61 12.85L39.61 12.85L39.61 12.85Q39.80 12.66 39.85 11.95L39.85 11.95L39.85 11.95Q39.90 11.24 39.90 9.69L39.90 9.69L39.90 7.81L39.90 7.81Q39.90 7.63 39.89 7.12L39.89 7.12L39.89 7.12Q39.87 6.61 39.87 6.30L39.87 6.30L39.87 5.66L39.87 5.66Q39.87 4.94 39.83 4.63L39.83 4.63L39.83 4.63Q39.79 4.30 39.47 4.12L39.47 4.12L39.47 4.12Q39.16 3.93 38.81 3.92L38.81 3.92L38.81 3.92Q38.51 3.91 38.51 3.71ZM55.65 3.71L55.65 3.71L55.65 3.71Q55.65 3.50 56.04 3.50L56.04 3.50L56.04 3.50Q56.18 3.50 56.69 3.53L56.69 3.53L56.69 3.53Q57.19 3.56 57.62 3.56L57.62 3.56L57.62 3.56Q57.89 3.56 58.14 3.54L58.14 3.54L58.14 3.54Q58.38 3.53 58.86 3.53L58.86 3.53L58.86 3.53Q59.23 3.53 59.23 3.72L59.23 3.72L59.23 3.72Q59.23 3.84 58.59 4.10L58.59 4.10L58.59 4.10Q58.14 4.28 58.14 5.71L58.14 5.71L58.14 5.71Q58.14 7.60 58.12 9.05L58.12 9.05L58.12 9.05Q58.10 10.50 58.10 10.89L58.10 10.89L58.10 10.89Q58.10 12.07 58.45 12.59L58.45 12.59L58.45 12.59Q58.76 13.02 59.12 13.02L59.12 13.02L59.12 13.02Q59.15 13.02 59.26 13.03L59.26 13.03L59.26 13.03Q59.37 13.03 59.40 13.03L59.40 13.03L59.40 13.03Q59.50 13.03 59.60 13.08L59.60 13.08L59.60 13.08Q59.70 13.13 59.70 13.19L59.70 13.19L59.70 13.19Q59.70 13.34 59.62 13.39L59.62 13.39L59.62 13.39Q59.54 13.44 59.35 13.44L59.35 13.44L59.35 13.44Q58.93 13.44 58.57 13.41L58.57 13.41L58.57 13.41Q58.21 13.38 58.02 13.38L58.02 13.38L58.02 13.38Q57.62 13.38 57.16 13.42L57.16 13.42L57.16 13.42Q56.70 13.45 56.48 13.45L56.48 13.45L56.48 13.45Q55.85 13.45 55.85 13.24L55.85 13.24L55.85 13.24Q55.85 13.12 55.98 13.07L55.98 13.07L55.98 13.07Q56.11 13.02 56.28 13.00L56.28 13.00L56.28 13.00Q56.45 12.98 56.63 12.82L56.63 12.82L56.63 12.82Q56.81 12.66 56.88 12.35L56.88 12.35L56.88 12.35Q56.91 12.25 56.97 10.76L56.97 10.76L56.97 10.76Q57.04 9.27 57.04 8.61L57.04 8.61L57.04 7.81L57.04 7.81Q57.04 7.63 57.04 7.12L57.04 7.12L57.04 7.12Q57.05 6.61 57.05 6.30L57.05 6.30L57.05 5.66L57.05 5.66Q57.05 5.04 56.99 4.63L56.99 4.63L56.99 4.63Q56.95 4.30 56.62 4.12L56.62 4.12L56.62 4.12Q56.29 3.93 55.94 3.92L55.94 3.92L55.94 3.92Q55.65 3.91 55.65 3.71ZM67.24 3.77L67.24 3.77L67.24 3.77Q67.24 3.68 67.34 3.60L67.34 3.60L67.34 3.60Q67.44 3.53 67.59 3.53L67.59 3.53L67.59 3.53Q67.68 3.53 67.87 3.54L67.87 3.54L67.87 3.54Q68.07 3.54 68.12 3.54L68.12 3.54L68.12 3.54Q68.33 3.54 68.52 3.53L68.52 3.53L68.52 3.53Q68.70 3.51 68.81 3.51L68.81 3.51L68.81 3.51Q68.94 3.51 69.10 3.59L69.10 3.59L69.10 3.59Q69.27 3.67 69.30 3.75L69.30 3.75L69.30 3.75Q69.33 3.79 69.45 3.94L69.45 3.94L69.45 3.94Q69.58 4.09 69.79 4.33L69.79 4.33L69.79 4.33Q70 4.56 70.17 4.79L70.17 4.79L70.17 4.79Q72.07 7.27 75.26 10.77L75.26 10.77L75.26 10.77Q75.35 10.86 75.47 10.99L75.47 10.99L75.47 10.99Q75.59 11.12 75.64 11.18L75.64 11.18L75.64 11.18Q75.68 11.24 75.74 11.30L75.74 11.30L75.74 11.30Q75.80 11.35 75.83 11.38L75.83 11.38L75.83 11.38Q75.87 11.40 75.89 11.40L75.89 11.40L75.89 11.40Q76.03 11.40 76.03 10.53L76.03 10.53L76.03 8.89L76.03 8.89Q76.03 7.95 76.03 7.31L76.03 7.31L76.03 7.31Q76.02 6.66 76.01 6.38L76.01 6.38L76.01 6.38Q76.01 6.09 76.01 6.02L76.01 6.02L76.01 5.92L76.01 5.92Q76.01 5.45 75.94 5.11L75.94 5.11L75.94 5.11Q75.88 4.77 75.80 4.59L75.80 4.59L75.80 4.59Q75.71 4.41 75.55 4.28L75.55 4.28L75.55 4.28Q75.39 4.16 75.28 4.12L75.28 4.12L75.28 4.12Q75.17 4.09 74.96 4.05L74.96 4.05L74.96 4.05Q74.75 4.00 74.66 3.98L74.66 3.98L74.66 3.98Q74.38 3.89 74.38 3.74L74.38 3.74L74.38 3.74Q74.38 3.53 74.65 3.53L74.65 3.53L74.65 3.53Q74.73 3.53 75.32 3.54L75.32 3.54L75.32 3.54Q75.91 3.54 75.98 3.54L75.98 3.54L75.98 3.54Q76.31 3.54 76.73 3.53L76.73 3.53L76.73 3.53Q77.14 3.51 77.24 3.51L77.24 3.51L77.24 3.51Q77.48 3.51 77.57 3.56L77.57 3.56L77.57 3.56Q77.66 3.61 77.66 3.75L77.66 3.75L77.66 3.75Q77.66 3.81 77.58 3.86L77.58 3.86L77.58 3.86Q77.50 3.91 77.42 3.94L77.42 3.94L77.42 3.94Q77.34 3.98 77.25 4.00L77.25 4.00L77.17 4.03L77.17 4.03Q76.71 4.28 76.71 5.61L76.71 5.61L76.71 6.15L76.71 6.15Q76.71 7.21 76.63 9.83L76.63 9.83L76.63 9.83Q76.55 12.46 76.55 13.08L76.55 13.08L76.55 13.36L76.55 13.36Q76.55 13.68 76.36 13.68L76.36 13.68L76.36 13.68Q76.23 13.68 76.13 13.58L76.13 13.58L76.13 13.58Q71.48 8.19 70.58 7.17L70.58 7.17L70.58 7.17Q69.68 6.16 69.58 6.16L69.58 6.16L69.58 6.16Q69.44 6.16 69.44 7.11L69.44 7.11L69.44 7.11Q69.44 8.44 69.38 9.97L69.38 9.97L69.38 9.97Q69.33 11.51 69.33 11.65L69.33 11.65L69.33 11.65Q69.33 12.28 69.55 12.61L69.55 12.61L69.55 12.61Q69.76 12.94 70.01 12.98L70.01 12.98L70.01 12.98Q70.27 13.02 70.48 13.07L70.48 13.07L70.48 13.07Q70.70 13.12 70.70 13.26L70.70 13.26L70.70 13.26Q70.70 13.41 70.65 13.45L70.65 13.45L70.65 13.45Q70.60 13.50 70.48 13.50L70.48 13.50L70.48 13.50Q70.38 13.50 70.03 13.48L70.03 13.48L70.03 13.48Q69.69 13.47 68.98 13.47L68.98 13.47L68.98 13.47Q68.85 13.47 68.46 13.48L68.46 13.48L68.46 13.48Q68.07 13.50 67.79 13.50L67.79 13.50L67.79 13.50Q67.48 13.50 67.48 13.27L67.48 13.27L67.48 13.27Q67.48 13.15 67.66 13.11L67.66 13.11L67.66 13.11Q67.84 13.08 68.11 12.89L68.11 12.89L68.11 12.89Q68.38 12.71 68.52 12.21L68.52 12.21L68.52 12.21Q68.60 11.89 68.73 9.60L68.73 9.60L68.73 9.60Q68.85 7.32 68.85 6.45L68.85 6.45L68.85 6.45Q68.85 5.25 68.52 4.65L68.52 4.65L68.52 4.65Q68.18 4.06 67.42 3.98L67.42 3.98L67.42 3.98Q67.24 3.96 67.24 3.77ZM85.75 8.83L85.75 8.83L85.75 8.83Q85.75 7.31 86.36 6.09L86.36 6.09L86.36 6.09Q86.97 4.87 88.23 4.12L88.23 4.12L88.23 4.12Q89.49 3.37 91.22 3.37L91.22 3.37L91.22 3.37Q91.90 3.37 92.48 3.48L92.48 3.48L92.48 3.48Q93.07 3.58 93.45 3.72L93.45 3.72L93.45 3.72Q93.83 3.86 94.11 4.01L94.11 4.01L94.11 4.01Q94.39 4.16 94.53 4.26L94.53 4.26L94.53 4.26Q94.68 4.37 94.71 4.37L94.71 4.37L94.71 4.37Q94.75 4.37 94.90 4.26L94.90 4.26L94.90 4.26Q95.05 4.16 95.10 4.16L95.10 4.16L95.10 4.16Q95.31 4.16 95.31 4.44L95.31 4.44L95.31 4.44Q95.33 4.84 95.38 5.29L95.38 5.29L95.38 5.29Q95.42 5.74 95.47 6.03L95.47 6.03L95.47 6.03Q95.51 6.33 95.51 6.38L95.51 6.38L95.51 6.38Q95.51 6.62 95.34 6.62L95.34 6.62L95.34 6.62Q95.17 6.62 95.10 6.45L95.10 6.45L95.10 6.45Q94.61 5.39 93.46 4.65L93.46 4.65L93.46 4.65Q92.32 3.92 91.10 3.92L91.10 3.92L91.10 3.92Q89.35 3.92 88.21 5.02L88.21 5.02L88.21 5.02Q87.07 6.12 87.07 8.06L87.07 8.06L87.07 8.06Q87.07 9.35 87.54 10.49L87.54 10.49L87.54 10.49Q88.02 11.62 88.99 12.36L88.99 12.36L88.99 12.36Q89.96 13.10 91.22 13.10L91.22 13.10L91.22 13.10Q92.30 13.10 93.18 12.61L93.18 12.61L93.18 12.61Q94.05 12.12 94.15 11.49L94.15 11.49L94.15 11.49Q94.19 11.16 94.19 9.73L94.19 9.73L94.19 9.73Q94.19 9.18 93.95 8.95L93.95 8.95L93.95 8.95Q93.79 8.78 93.34 8.72L93.34 8.72L93.34 8.72Q92.92 8.68 92.85 8.55L92.85 8.55L92.85 8.55Q92.82 8.50 92.82 8.41L92.82 8.41L92.82 8.41Q92.82 8.26 93.07 8.26L93.07 8.26L93.07 8.26Q93.25 8.26 93.86 8.29L93.86 8.29L93.86 8.29Q94.46 8.33 94.63 8.33L94.63 8.33L94.63 8.33Q94.91 8.33 95.23 8.32L95.23 8.32L95.23 8.32Q95.55 8.32 95.75 8.32L95.75 8.32L95.96 8.32L95.96 8.32Q96.18 8.32 96.18 8.44L96.18 8.44L96.18 8.44Q96.18 8.54 95.82 8.69L95.82 8.69L95.82 8.69Q95.47 8.85 95.42 9.09L95.42 9.09L95.42 9.09Q95.33 9.69 95.33 10.65L95.33 10.65L95.33 10.65Q95.33 11.07 95.34 11.40L95.34 11.40L95.34 11.40Q95.35 11.72 95.36 11.85L95.36 11.85L95.36 11.85Q95.37 11.98 95.38 12.08L95.38 12.08L95.38 12.08Q95.40 12.18 95.40 12.22L95.40 12.22L95.40 12.22Q95.40 12.29 95.29 12.33L95.29 12.33L95.29 12.33Q95.19 12.36 94.95 12.42L94.95 12.42L94.95 12.42Q94.71 12.49 94.51 12.60L94.51 12.60L94.42 12.66L94.42 12.66Q94.32 12.73 94.22 12.78L94.22 12.78L94.22 12.78Q94.12 12.84 93.96 12.92L93.96 12.92L93.96 12.92Q93.80 13.01 93.63 13.09L93.63 13.09L93.63 13.09Q93.46 13.17 93.25 13.26L93.25 13.26L93.25 13.26Q93.04 13.36 92.82 13.43L92.82 13.43L92.82 13.43Q92.60 13.50 92.36 13.55L92.36 13.55L92.36 13.55Q92.12 13.61 91.86 13.64L91.86 13.64L91.86 13.64Q91.60 13.68 91.35 13.68L91.35 13.68L91.35 13.68Q89.82 13.68 88.70 13.26L88.70 13.26L88.70 13.26Q87.57 12.85 86.95 12.14L86.95 12.14L86.95 12.14Q86.34 11.44 86.04 10.61L86.04 10.61L86.04 10.61Q85.75 9.79 85.75 8.83ZM113.85 3.72L113.85 3.72L113.85 3.72Q113.85 3.51 113.97 3.51L113.97 3.51L113.97 3.51Q114.02 3.51 114.16 3.52L114.16 3.52L114.16 3.52Q114.30 3.53 114.53 3.53L114.53 3.53L114.53 3.53Q114.81 3.53 115.65 3.52L115.65 3.52L115.65 3.52Q116.48 3.51 116.58 3.51L116.58 3.51L116.58 3.51Q116.90 3.51 117.39 3.49L117.39 3.49L117.39 3.49Q117.88 3.47 118.12 3.47L118.12 3.47L118.12 3.47Q119.39 3.47 120.25 4.08L120.25 4.08L120.25 4.08Q121.10 4.69 121.10 5.81L121.10 5.81L121.10 5.81Q121.10 6.22 120.95 6.57L120.95 6.57L120.95 6.57Q120.81 6.93 120.60 7.15L120.60 7.15L120.60 7.15Q120.40 7.38 120.20 7.54L120.20 7.54L120.20 7.54Q119.99 7.70 119.85 7.79L119.85 7.79L119.85 7.79Q119.70 7.88 119.70 7.90L119.70 7.90L119.70 7.90Q119.70 7.94 119.94 8.00L119.94 8.00L119.94 8.00Q120.18 8.06 120.51 8.21L120.51 8.21L120.51 8.21Q120.85 8.36 121.18 8.61L121.18 8.61L121.18 8.61Q121.51 8.86 121.74 9.36L121.74 9.36L121.74 9.36Q121.98 9.86 121.98 10.53L121.98 10.53L121.98 10.53Q121.98 11.13 121.63 11.82L121.63 11.82L121.63 11.82Q121.28 12.50 120.81 12.82L120.81 12.82L120.81 12.82Q120.19 13.26 119.66 13.40L119.66 13.40L119.66 13.40Q119.13 13.55 118.37 13.55L118.37 13.55L118.37 13.55Q117.81 13.55 116.89 13.47L116.89 13.47L116.89 13.47Q115.96 13.40 115.86 13.40L115.86 13.40L115.86 13.40Q115.71 13.40 115.31 13.43L115.31 13.43L115.31 13.43Q114.91 13.45 114.66 13.45L114.66 13.45L114.46 13.45L114.46 13.45Q114.17 13.45 114.17 13.24L114.17 13.24L114.17 13.24Q114.17 13.05 114.32 13.05L114.32 13.05L114.32 13.05Q114.41 13.05 114.51 13.04L114.51 13.04L114.51 13.04Q114.60 13.03 114.65 13.03L114.65 13.03L114.65 13.03Q114.77 13.03 114.89 12.94L114.89 12.94L114.89 12.94Q115.01 12.85 115.14 12.54L115.14 12.54L115.14 12.54Q115.26 12.22 115.28 11.73L115.28 11.73L115.28 11.73Q115.32 10.82 115.32 7.36L115.32 7.36L115.32 4.98L115.32 4.98Q115.32 4.89 115.28 4.75L115.28 4.75L115.28 4.75Q115.25 4.62 115.14 4.40L115.14 4.40L115.14 4.40Q115.04 4.19 114.77 4.04L114.77 4.04L114.77 4.04Q114.49 3.89 114.09 3.89L114.09 3.89L114.09 3.89Q113.85 3.89 113.85 3.72ZM116.38 12.15L116.38 12.15L116.38 12.15Q116.38 12.99 117.75 12.99L117.75 12.99L118.08 12.99L118.08 12.99Q118.83 12.99 119.28 12.92L119.28 12.92L119.28 12.92Q119.94 12.81 120.36 12.24L120.36 12.24L120.36 12.24Q120.79 11.66 120.79 10.86L120.79 10.86L120.79 10.86Q120.79 10.18 120.54 9.68L120.54 9.68L120.54 9.68Q120.29 9.18 119.97 8.93L119.97 8.93L119.97 8.93Q119.64 8.68 119.20 8.54L119.20 8.54L119.20 8.54Q118.76 8.40 118.52 8.37L118.52 8.37L118.52 8.37Q118.27 8.34 118.05 8.34L118.05 8.34L118.05 8.34Q117.60 8.34 117.31 8.34L117.31 8.34L117.31 8.34Q117.03 8.33 116.95 8.33L116.95 8.33L116.95 8.33Q116.87 8.33 116.82 8.32L116.82 8.32L116.82 8.32Q116.77 8.32 116.75 8.32L116.75 8.32L116.75 8.32Q116.62 8.32 116.56 8.35L116.56 8.35L116.56 8.35Q116.51 8.39 116.46 8.62L116.46 8.62L116.46 8.62Q116.41 8.85 116.40 9.28L116.40 9.28L116.40 9.28Q116.40 9.72 116.40 10.58L116.40 10.58L116.40 10.70L116.40 10.70Q116.40 11.21 116.40 11.54L116.40 11.54L116.40 11.54Q116.40 11.86 116.39 11.99L116.39 11.99L116.39 11.99Q116.38 12.12 116.38 12.15ZM116.47 5.40L116.47 5.81L116.47 5.81Q116.47 6.51 116.47 6.90L116.47 6.90L116.47 6.90Q116.48 7.29 116.51 7.50L116.51 7.50L116.51 7.50Q116.54 7.71 116.56 7.77L116.56 7.77L116.56 7.77Q116.59 7.83 116.65 7.83L116.65 7.83L116.65 7.83Q117.04 7.87 117.36 7.87L117.36 7.87L118.26 7.87L118.26 7.87Q119.14 7.87 119.58 7.41L119.58 7.41L119.58 7.41Q120.02 6.94 120.02 6.22L120.02 6.22L120.02 6.22Q120.02 5.43 119.29 4.70L119.29 4.70L119.29 4.70Q118.55 3.96 117.19 3.96L117.19 3.96L117.19 3.96Q116.76 3.96 116.61 4.22L116.61 4.22L116.61 4.22Q116.47 4.48 116.47 5.40L116.47 5.40ZM129.67 3.65L129.67 3.65L129.67 3.65Q129.67 3.46 130.06 3.46L130.06 3.46L130.06 3.46Q130.12 3.46 130.24 3.47L130.24 3.47L130.24 3.47Q130.37 3.49 130.44 3.49L130.44 3.49L130.44 3.49Q130.48 3.49 131.75 3.52L131.75 3.52L131.75 3.52Q133.03 3.56 133.85 3.56L133.85 3.56L133.85 3.56Q134.15 3.56 135.30 3.53L135.30 3.53L135.30 3.53Q136.46 3.50 136.65 3.50L136.65 3.50L136.65 3.50Q136.92 3.50 136.92 3.82L136.92 3.82L136.92 3.82Q136.92 3.91 136.84 4.38L136.84 4.38L136.84 4.38Q136.75 4.84 136.75 5.25L136.75 5.25L136.75 5.25Q136.75 5.38 136.68 5.47L136.68 5.47L136.68 5.47Q136.61 5.56 136.53 5.56L136.53 5.56L136.53 5.56Q136.32 5.56 136.32 5.26L136.32 5.26L136.32 5.26Q136.32 4.89 136.08 4.58L136.08 4.58L136.08 4.58Q135.84 4.27 135.49 4.26L135.49 4.26L135.49 4.26Q134.23 4.16 133.56 4.16L133.56 4.16L133.20 4.16L133.20 4.16Q132.47 4.16 132.35 4.26L132.35 4.26L132.35 4.26Q132.23 4.37 132.20 5.01L132.20 5.01L132.20 5.01Q132.15 6.02 132.15 7.35L132.15 7.35L132.15 7.35Q132.15 8.05 132.41 8.06L132.41 8.06L132.76 8.06L133.35 8.06L133.78 8.06L133.78 8.06Q134.62 8.06 134.90 8.01L134.90 8.01L134.90 8.01Q135.18 7.95 135.41 7.80L135.41 7.80L135.41 7.80Q135.67 7.62 135.73 7.28L135.73 7.28L135.73 7.28Q135.77 7.04 135.93 7.04L135.93 7.04L135.93 7.04Q136.05 7.04 136.08 7.08L136.08 7.08L136.08 7.08Q136.11 7.13 136.11 7.27L136.11 7.27L136.11 7.27Q136.11 7.36 136.05 7.91L136.05 7.91L136.05 7.91Q136.00 8.46 136.00 8.74L136.00 8.74L136.00 8.74Q136.00 9.00 136.02 9.24L136.02 9.24L136.02 9.24Q136.04 9.48 136.04 9.59L136.04 9.59L136.04 9.59Q136.04 9.94 135.94 9.94L135.94 9.94L135.94 9.94Q135.73 9.94 135.63 9.60L135.63 9.60L135.63 9.60Q135.44 9.02 135.28 8.92L135.28 8.92L135.28 8.92Q134.99 8.72 133.94 8.72L133.94 8.72L133.94 8.72Q133.52 8.72 133.26 8.72L133.26 8.72L133.26 8.72Q133 8.72 132.92 8.71L132.92 8.71L132.92 8.71Q132.85 8.71 132.80 8.71L132.80 8.71L132.80 8.71Q132.75 8.71 132.71 8.71L132.71 8.71L132.71 8.71Q132.13 8.71 132.13 8.97L132.13 8.97L132.13 8.97Q132.13 9.38 132.12 9.99L132.12 9.99L132.12 9.99Q132.10 10.60 132.10 10.99L132.10 10.99L132.10 11.55L132.10 11.55Q132.10 12.56 132.44 12.66L132.44 12.66L132.44 12.66Q132.79 12.77 133.04 12.77L133.04 12.77L133.04 12.77Q134.09 12.77 134.88 12.67L134.88 12.67L134.88 12.67Q135.67 12.57 136.07 12.42L136.07 12.42L136.07 12.42Q136.47 12.28 136.74 12.10L136.74 12.10L136.74 12.10Q137.00 11.93 137.08 11.78L137.08 11.78L137.08 11.78Q137.16 11.63 137.24 11.54L137.24 11.54L137.24 11.54Q137.31 11.44 137.40 11.44L137.40 11.44L137.40 11.44Q137.56 11.44 137.56 11.68L137.56 11.68L137.56 11.68Q137.56 12.28 136.96 12.89L136.96 12.89L136.96 12.89Q136.36 13.51 135.91 13.51L135.91 13.51L135.91 13.51Q134.90 13.51 133.64 13.44L133.64 13.44L133.64 13.44Q132.37 13.37 132.06 13.37L132.06 13.37L132.06 13.37Q131.67 13.37 131.08 13.43L131.08 13.43L131.08 13.43Q130.49 13.50 130.16 13.50L130.16 13.50L130.16 13.50Q129.86 13.50 129.86 13.36L129.86 13.36L129.86 13.36Q129.86 13.23 129.86 13.19L129.86 13.19L129.86 13.19Q129.86 13.15 129.91 13.12L129.91 13.12L129.91 13.12Q129.95 13.09 130.00 13.08L130.00 13.08L130.00 13.08Q130.05 13.08 130.18 13.03L130.18 13.03L130.18 13.03Q130.31 12.99 130.47 12.92L130.47 12.92L130.47 12.92Q130.80 12.75 130.91 12.26L130.91 12.26L130.91 12.26Q131.01 11.77 131.01 10.21L131.01 10.21L131.01 8.47L131.01 8.47Q131.01 8.09 131.03 7.29L131.03 7.29L131.03 7.29Q131.05 6.50 131.05 6.05L131.05 6.05L131.05 6.05Q131.05 5.67 131.03 4.77L131.03 4.77L131.03 4.77Q131.01 4.37 130.68 4.14L130.68 4.14L130.68 4.14Q130.34 3.92 129.89 3.91L129.89 3.91L129.89 3.91Q129.67 3.91 129.67 3.65ZM145.12 5.32L145.12 5.32L145.12 5.32Q145.12 4.76 145.26 3.88L145.26 3.88L145.26 3.88Q145.26 3.85 145.27 3.78L145.27 3.78L145.27 3.78Q145.28 3.71 145.28 3.69L145.28 3.69L145.28 3.69Q145.29 3.67 145.30 3.62L145.30 3.62L145.30 3.62Q145.31 3.57 145.32 3.55L145.32 3.55L145.32 3.55Q145.33 3.53 145.35 3.49L145.35 3.49L145.35 3.49Q145.38 3.46 145.40 3.44L145.40 3.44L145.40 3.44Q145.43 3.43 145.47 3.42L145.47 3.42L145.47 3.42Q145.52 3.40 145.57 3.39L145.57 3.39L145.57 3.39Q145.63 3.39 145.70 3.39L145.70 3.39L145.70 3.39Q145.92 3.39 146.88 3.44L146.88 3.44L146.88 3.44Q147.84 3.50 149.65 3.50L149.65 3.50L149.65 3.50Q152.73 3.50 153.96 3.43L153.96 3.43L153.96 3.43Q153.97 3.43 154.01 3.42L154.01 3.42L154.01 3.42Q154.04 3.42 154.06 3.42L154.06 3.42L154.06 3.42Q154.21 3.42 154.27 3.50L154.27 3.50L154.27 3.50Q154.32 3.58 154.32 3.65L154.32 3.65L154.32 3.65Q154.32 3.75 154.36 4.24L154.36 4.24L154.36 4.24Q154.41 4.73 154.41 4.79L154.41 4.79L154.41 4.79Q154.41 5.14 154.36 5.23L154.36 5.23L154.36 5.23Q154.32 5.32 154.18 5.32L154.18 5.32L154.18 5.32Q154.07 5.32 154.03 5.15L154.03 5.15L154.03 5.15Q153.92 4.75 153.83 4.60L153.83 4.60L153.83 4.60Q153.75 4.45 153.47 4.34L153.47 4.34L153.47 4.34Q153.19 4.23 152.61 4.23L152.61 4.23L150.79 4.23L150.79 4.23Q150.46 4.23 150.38 4.36L150.38 4.36L150.38 4.36Q150.30 4.49 150.30 5.12L150.30 5.12L150.30 5.81L150.30 5.81Q150.30 7.69 150.28 9.11L150.28 9.11L150.28 9.11Q150.26 10.54 150.26 10.93L150.26 10.93L150.26 10.93Q150.26 11.13 150.25 11.43L150.25 11.43L150.25 11.43Q150.25 11.73 150.25 11.84L150.25 11.84L150.25 11.84Q150.25 12.45 150.44 12.64L150.44 12.64L150.44 12.64Q150.63 12.81 150.85 12.90L150.85 12.90L150.85 12.90Q151.07 12.99 151.23 13.01L151.23 13.01L151.23 13.01Q151.40 13.02 151.51 13.08L151.51 13.08L151.51 13.08Q151.62 13.13 151.62 13.26L151.62 13.26L151.62 13.26Q151.62 13.41 151.55 13.45L151.55 13.45L151.55 13.45Q151.48 13.50 151.28 13.50L151.28 13.50L151.28 13.50Q151.12 13.50 150.54 13.44L150.54 13.44L150.54 13.44Q149.97 13.38 149.73 13.38L149.73 13.38L149.73 13.38Q149.56 13.38 149.05 13.43L149.05 13.43L149.05 13.43Q148.54 13.48 148.30 13.48L148.30 13.48L148.30 13.48Q147.78 13.48 147.78 13.26L147.78 13.26L147.78 13.26Q147.78 13.12 147.87 13.07L147.87 13.07L147.87 13.07Q147.95 13.02 148.20 12.98L148.20 12.98L148.20 12.98Q148.44 12.95 148.51 12.94L148.51 12.94L148.51 12.94Q148.99 12.82 149.04 12.38L149.04 12.38L149.04 12.38Q149.18 11.14 149.18 7.08L149.18 7.08L149.17 4.58L149.17 4.58Q149.17 4.31 149.02 4.25L149.02 4.25L149.02 4.25Q148.86 4.19 148.11 4.19L148.11 4.19L148.11 4.19Q147.13 4.19 146.63 4.24L146.63 4.24L146.63 4.24Q146.13 4.30 146.05 4.35L146.05 4.35L146.05 4.35Q145.96 4.40 145.85 4.54L145.85 4.54L145.85 4.54Q145.73 4.70 145.65 4.91L145.65 4.91L145.65 4.91Q145.57 5.11 145.55 5.24L145.55 5.24L145.55 5.24Q145.53 5.38 145.47 5.47L145.47 5.47L145.47 5.47Q145.40 5.56 145.28 5.56L145.28 5.56L145.28 5.56Q145.12 5.56 145.12 5.32ZM161.97 5.32L161.97 5.32L161.97 5.32Q161.97 4.76 162.11 3.88L162.11 3.88L162.11 3.88Q162.11 3.85 162.11 3.78L162.11 3.78L162.11 3.78Q162.12 3.71 162.13 3.69L162.13 3.69L162.13 3.69Q162.13 3.67 162.14 3.62L162.14 3.62L162.14 3.62Q162.15 3.57 162.16 3.55L162.16 3.55L162.16 3.55Q162.18 3.53 162.20 3.49L162.20 3.49L162.20 3.49Q162.22 3.46 162.25 3.44L162.25 3.44L162.25 3.44Q162.27 3.43 162.32 3.42L162.32 3.42L162.32 3.42Q162.36 3.40 162.41 3.39L162.41 3.39L162.41 3.39Q162.47 3.39 162.54 3.39L162.54 3.39L162.54 3.39Q162.76 3.39 163.72 3.44L163.72 3.44L163.72 3.44Q164.68 3.50 166.49 3.50L166.49 3.50L166.49 3.50Q169.57 3.50 170.80 3.43L170.80 3.43L170.80 3.43Q170.81 3.43 170.85 3.42L170.85 3.42L170.85 3.42Q170.88 3.42 170.90 3.42L170.90 3.42L170.90 3.42Q171.05 3.42 171.11 3.50L171.11 3.50L171.11 3.50Q171.16 3.58 171.16 3.65L171.16 3.65L171.16 3.65Q171.16 3.75 171.21 4.24L171.21 4.24L171.21 4.24Q171.25 4.73 171.25 4.79L171.25 4.79L171.25 4.79Q171.25 5.14 171.21 5.23L171.21 5.23L171.21 5.23Q171.16 5.32 171.02 5.32L171.02 5.32L171.02 5.32Q170.91 5.32 170.87 5.15L170.87 5.15L170.87 5.15Q170.76 4.75 170.67 4.60L170.67 4.60L170.67 4.60Q170.59 4.45 170.31 4.34L170.31 4.34L170.31 4.34Q170.03 4.23 169.46 4.23L169.46 4.23L167.64 4.23L167.64 4.23Q167.30 4.23 167.22 4.36L167.22 4.36L167.22 4.36Q167.15 4.49 167.15 5.12L167.15 5.12L167.15 5.81L167.15 5.81Q167.15 7.69 167.13 9.11L167.13 9.11L167.13 9.11Q167.10 10.54 167.10 10.93L167.10 10.93L167.10 10.93Q167.10 11.13 167.10 11.43L167.10 11.43L167.10 11.43Q167.09 11.73 167.09 11.84L167.09 11.84L167.09 11.84Q167.09 12.45 167.29 12.64L167.29 12.64L167.29 12.64Q167.47 12.81 167.69 12.90L167.69 12.90L167.69 12.90Q167.92 12.99 168.08 13.01L168.08 13.01L168.08 13.01Q168.24 13.02 168.35 13.08L168.35 13.08L168.35 13.08Q168.46 13.13 168.46 13.26L168.46 13.26L168.46 13.26Q168.46 13.41 168.39 13.45L168.39 13.45L168.39 13.45Q168.32 13.50 168.13 13.50L168.13 13.50L168.13 13.50Q167.96 13.50 167.38 13.44L167.38 13.44L167.38 13.44Q166.81 13.38 166.57 13.38L166.57 13.38L166.57 13.38Q166.40 13.38 165.89 13.43L165.89 13.43L165.89 13.43Q165.38 13.48 165.14 13.48L165.14 13.48L165.14 13.48Q164.63 13.48 164.63 13.26L164.63 13.26L164.63 13.26Q164.63 13.12 164.71 13.07L164.71 13.07L164.71 13.07Q164.79 13.02 165.04 12.98L165.04 12.98L165.04 12.98Q165.28 12.95 165.35 12.94L165.35 12.94L165.35 12.94Q165.83 12.82 165.89 12.38L165.89 12.38L165.89 12.38Q166.03 11.14 166.03 7.08L166.03 7.08L166.01 4.58L166.01 4.58Q166.01 4.31 165.86 4.25L165.86 4.25L165.86 4.25Q165.70 4.19 164.95 4.19L164.95 4.19L164.95 4.19Q163.97 4.19 163.47 4.24L163.47 4.24L163.47 4.24Q162.97 4.30 162.89 4.35L162.89 4.35L162.89 4.35Q162.81 4.40 162.69 4.54L162.69 4.54L162.69 4.54Q162.57 4.70 162.49 4.91L162.49 4.91L162.49 4.91Q162.41 5.11 162.39 5.24L162.39 5.24L162.39 5.24Q162.37 5.38 162.31 5.47L162.31 5.47L162.31 5.47Q162.25 5.56 162.12 5.56L162.12 5.56L162.12 5.56Q161.97 5.56 161.97 5.32ZM178.81 3.65L178.81 3.65L178.81 3.65Q178.81 3.46 179.20 3.46L179.20 3.46L179.20 3.46Q179.26 3.46 179.38 3.47L179.38 3.47L179.38 3.47Q179.51 3.49 179.58 3.49L179.58 3.49L179.58 3.49Q179.62 3.49 180.89 3.52L180.89 3.52L180.89 3.52Q182.17 3.56 182.99 3.56L182.99 3.56L182.99 3.56Q183.29 3.56 184.44 3.53L184.44 3.53L184.44 3.53Q185.60 3.50 185.79 3.50L185.79 3.50L185.79 3.50Q186.06 3.50 186.06 3.82L186.06 3.82L186.06 3.82Q186.06 3.91 185.98 4.38L185.98 4.38L185.98 4.38Q185.89 4.84 185.89 5.25L185.89 5.25L185.89 5.25Q185.89 5.38 185.82 5.47L185.82 5.47L185.82 5.47Q185.75 5.56 185.67 5.56L185.67 5.56L185.67 5.56Q185.46 5.56 185.46 5.26L185.46 5.26L185.46 5.26Q185.46 4.89 185.22 4.58L185.22 4.58L185.22 4.58Q184.98 4.27 184.63 4.26L184.63 4.26L184.63 4.26Q183.37 4.16 182.70 4.16L182.70 4.16L182.34 4.16L182.34 4.16Q181.61 4.16 181.49 4.26L181.49 4.26L181.49 4.26Q181.37 4.37 181.34 5.01L181.34 5.01L181.34 5.01Q181.29 6.02 181.29 7.35L181.29 7.35L181.29 7.35Q181.29 8.05 181.55 8.06L181.55 8.06L181.90 8.06L182.49 8.06L182.92 8.06L182.92 8.06Q183.76 8.06 184.04 8.01L184.04 8.01L184.04 8.01Q184.32 7.95 184.55 7.80L184.55 7.80L184.55 7.80Q184.81 7.62 184.87 7.28L184.87 7.28L184.87 7.28Q184.91 7.04 185.07 7.04L185.07 7.04L185.07 7.04Q185.19 7.04 185.22 7.08L185.22 7.08L185.22 7.08Q185.25 7.13 185.25 7.27L185.25 7.27L185.25 7.27Q185.25 7.36 185.19 7.91L185.19 7.91L185.19 7.91Q185.14 8.46 185.14 8.74L185.14 8.74L185.14 8.74Q185.14 9.00 185.16 9.24L185.16 9.24L185.16 9.24Q185.18 9.48 185.18 9.59L185.18 9.59L185.18 9.59Q185.18 9.94 185.08 9.94L185.08 9.94L185.08 9.94Q184.87 9.94 184.77 9.60L184.77 9.60L184.77 9.60Q184.58 9.02 184.42 8.92L184.42 8.92L184.42 8.92Q184.13 8.72 183.08 8.72L183.08 8.72L183.08 8.72Q182.66 8.72 182.40 8.72L182.40 8.72L182.40 8.72Q182.14 8.72 182.06 8.71L182.06 8.71L182.06 8.71Q181.99 8.71 181.94 8.71L181.94 8.71L181.94 8.71Q181.89 8.71 181.85 8.71L181.85 8.71L181.85 8.71Q181.27 8.71 181.27 8.97L181.27 8.97L181.27 8.97Q181.27 9.38 181.26 9.99L181.26 9.99L181.26 9.99Q181.24 10.60 181.24 10.99L181.24 10.99L181.24 11.55L181.24 11.55Q181.24 12.56 181.58 12.66L181.58 12.66L181.58 12.66Q181.93 12.77 182.18 12.77L182.18 12.77L182.18 12.77Q183.23 12.77 184.02 12.67L184.02 12.67L184.02 12.67Q184.81 12.57 185.21 12.42L185.21 12.42L185.21 12.42Q185.61 12.28 185.88 12.10L185.88 12.10L185.88 12.10Q186.14 11.93 186.22 11.78L186.22 11.78L186.22 11.78Q186.30 11.63 186.38 11.54L186.38 11.54L186.38 11.54Q186.45 11.44 186.54 11.44L186.54 11.44L186.54 11.44Q186.70 11.44 186.70 11.68L186.70 11.68L186.70 11.68Q186.70 12.28 186.10 12.89L186.10 12.89L186.10 12.89Q185.50 13.51 185.05 13.51L185.05 13.51L185.05 13.51Q184.04 13.51 182.78 13.44L182.78 13.44L182.78 13.44Q181.51 13.37 181.20 13.37L181.20 13.37L181.20 13.37Q180.81 13.37 180.22 13.43L180.22 13.43L180.22 13.43Q179.63 13.50 179.30 13.50L179.30 13.50L179.30 13.50Q179.00 13.50 179.00 13.36L179.00 13.36L179.00 13.36Q179.00 13.23 179.00 13.19L179.00 13.19L179.00 13.19Q179.00 13.15 179.05 13.12L179.05 13.12L179.05 13.12Q179.09 13.09 179.14 13.08L179.14 13.08L179.14 13.08Q179.19 13.08 179.32 13.03L179.32 13.03L179.32 13.03Q179.45 12.99 179.61 12.92L179.61 12.92L179.61 12.92Q179.94 12.75 180.05 12.26L180.05 12.26L180.05 12.26Q180.15 11.77 180.15 10.21L180.15 10.21L180.15 8.47L180.15 8.47Q180.15 8.09 180.17 7.29L180.17 7.29L180.17 7.29Q180.19 6.50 180.19 6.05L180.19 6.05L180.19 6.05Q180.19 5.67 180.17 4.77L180.17 4.77L180.17 4.77Q180.15 4.37 179.82 4.14L179.82 4.14L179.82 4.14Q179.48 3.92 179.03 3.91L179.03 3.91L179.03 3.91Q178.81 3.91 178.81 3.65ZM194.26 3.70L194.26 3.70L194.26 3.70Q194.26 3.47 194.67 3.47L194.67 3.47L196.99 3.47L196.99 3.47Q197.32 3.47 197.74 3.45L197.74 3.45L197.74 3.45Q198.16 3.43 198.39 3.43L198.39 3.43L198.39 3.43Q199.65 3.43 200.55 4.07L200.55 4.07L200.55 4.07Q201.45 4.70 201.45 5.78L201.45 5.78L201.45 5.78Q201.45 6.50 201.17 7.03L201.17 7.03L201.17 7.03Q200.90 7.57 200.57 7.81L200.57 7.81L200.57 7.81Q200.24 8.05 199.97 8.22L199.97 8.22L199.97 8.22Q199.70 8.40 199.70 8.46L199.70 8.46L199.70 8.46Q199.70 8.62 200.87 10.27L200.87 10.27L200.87 10.27Q202.05 11.91 202.48 12.38L202.48 12.38L202.48 12.38Q203.01 13.03 203.77 13.03L203.77 13.03L203.77 13.03Q203.97 13.03 203.97 13.20L203.97 13.20L203.97 13.20Q203.97 13.41 203.80 13.48L203.80 13.48L203.80 13.48Q203.63 13.55 202.93 13.55L202.93 13.55L202.93 13.55Q202.27 13.55 201.73 13.23L201.73 13.23L201.73 13.23Q201.03 12.82 199.36 10.09L199.36 10.09L199.36 10.09Q199.26 9.94 199.22 9.87L199.22 9.87L199.22 9.87Q198.55 8.78 198.18 8.78L198.18 8.78L197.89 8.78L197.04 8.78L197.04 8.78Q196.87 8.78 196.83 8.92L196.83 8.92L196.83 8.92Q196.80 9.06 196.80 9.77L196.80 9.77L196.80 9.77Q196.80 10.44 196.80 10.88L196.80 10.88L196.80 10.88Q196.80 11.31 196.81 11.43L196.81 11.43L196.81 11.43Q196.81 11.55 196.81 11.63L196.81 11.63L196.81 11.63Q196.81 11.70 196.81 11.75L196.81 11.75L196.81 11.75Q196.81 12.32 197.08 12.63L197.08 12.63L197.08 12.63Q197.34 12.95 197.67 13.00L197.67 13.00L197.67 13.00Q198.00 13.05 198.27 13.11L198.27 13.11L198.27 13.11Q198.53 13.17 198.53 13.31L198.53 13.31L198.53 13.31Q198.53 13.54 198.28 13.54L198.28 13.54L198.28 13.54Q198.27 13.54 197.32 13.49L197.32 13.49L197.32 13.49Q196.36 13.44 196.28 13.44L196.28 13.44L196.28 13.44Q195.87 13.44 195.31 13.47L195.31 13.47L195.31 13.47Q194.75 13.50 194.74 13.50L194.74 13.50L194.74 13.50Q194.45 13.50 194.45 13.27L194.45 13.27L194.45 13.27Q194.45 13.12 194.63 13.05L194.63 13.05L194.63 13.05Q194.81 12.99 195.03 12.96L195.03 12.96L195.03 12.96Q195.26 12.94 195.44 12.66L195.44 12.66L195.44 12.66Q195.62 12.38 195.62 11.86L195.62 11.86L195.62 11.86Q195.62 11.49 195.63 9.90L195.63 9.90L195.63 9.90Q195.64 8.30 195.64 7.45L195.64 7.45L195.64 7.45Q195.64 6.58 195.63 5.86L195.63 5.86L195.63 5.86Q195.62 5.14 195.62 5.08L195.62 5.08L195.62 5.08Q195.62 4.56 195.41 4.29L195.41 4.29L195.41 4.29Q195.20 4.02 194.94 3.98L194.94 3.98L194.94 3.98Q194.68 3.95 194.47 3.89L194.47 3.89L194.47 3.89Q194.26 3.84 194.26 3.70ZM196.80 5.54L196.80 5.94L196.80 5.94Q196.80 7.38 196.81 7.72L196.81 7.72L196.81 7.72Q196.83 8.06 196.91 8.12L196.91 8.12L196.91 8.12Q197.12 8.25 197.51 8.25L197.51 8.25L197.65 8.25L198.06 8.25L198.06 8.25Q199.25 8.25 199.76 7.70L199.76 7.70L199.76 7.70Q200.27 7.15 200.27 6.30L200.27 6.30L200.27 6.30Q200.27 5.43 199.59 4.72L199.59 4.72L199.59 4.72Q198.91 4.00 197.54 4.00L197.54 4.00L197.54 4.00Q197.02 4.00 196.91 4.28L196.91 4.28L196.91 4.28Q196.80 4.55 196.80 5.54L196.80 5.54ZM221.30 3.64L221.30 3.64L221.30 3.64Q221.30 3.51 221.42 3.49L221.42 3.49L221.42 3.49Q221.54 3.47 222.01 3.47L222.01 3.47L223.23 3.47L223.23 3.47Q223.58 3.47 224.52 3.44L224.52 3.44L224.52 3.44Q225.46 3.42 225.96 3.42L225.96 3.42L225.96 3.42Q226.93 3.42 227.89 3.71L227.89 3.71L227.89 3.71Q228.86 4.00 229.67 4.56L229.67 4.56L229.67 4.56Q230.48 5.11 230.99 6.00L230.99 6.00L230.99 6.00Q231.49 6.89 231.49 7.98L231.49 7.98L231.49 7.98Q231.49 8.96 231.36 9.68L231.36 9.68L231.36 9.68Q231.22 10.40 230.92 10.93L230.92 10.93L230.92 10.93Q230.61 11.45 230.30 11.78L230.30 11.78L230.30 11.78Q229.99 12.11 229.46 12.56L229.46 12.56L229.46 12.56Q229.04 12.89 228.24 13.19L228.24 13.19L228.24 13.19Q227.44 13.48 226.60 13.48L226.60 13.48L226.60 13.48Q226.52 13.48 225.18 13.45L225.18 13.45L225.18 13.45Q223.83 13.41 223.24 13.41L223.24 13.41L223.24 13.41Q222.75 13.41 222.33 13.45L222.33 13.45L222.33 13.45Q221.91 13.48 221.84 13.48L221.84 13.48L221.84 13.48Q221.51 13.48 221.51 13.30L221.51 13.30L221.51 13.30Q221.51 13.19 221.56 13.14L221.56 13.14L221.56 13.14Q221.61 13.09 221.77 13.05L221.77 13.05L221.77 13.05Q221.93 13.01 222.00 12.98L222.00 12.98L222.00 12.98Q222.22 12.88 222.41 12.61L222.41 12.61L222.41 12.61Q222.60 12.33 222.60 12.07L222.60 12.07L222.60 12.07Q222.60 11.28 222.61 10.07L222.61 10.07L222.61 10.07Q222.61 8.85 222.61 8.27L222.61 8.27L222.61 8.27Q222.61 7.77 222.61 6.70L222.61 6.70L222.61 6.70Q222.60 5.63 222.60 4.72L222.60 4.72L222.60 4.72Q222.60 4.48 222.37 4.23L222.37 4.23L222.37 4.23Q222.14 3.99 221.86 3.98L221.86 3.98L221.86 3.98Q221.66 3.96 221.57 3.95L221.57 3.95L221.57 3.95Q221.48 3.93 221.39 3.86L221.39 3.86L221.39 3.86Q221.30 3.78 221.30 3.64ZM223.78 11.47L223.78 11.47L223.78 11.47Q223.78 11.73 223.78 11.90L223.78 11.90L223.78 11.90Q223.79 12.07 223.84 12.21L223.84 12.21L223.84 12.21Q223.89 12.35 223.92 12.40L223.92 12.40L223.92 12.40Q223.94 12.46 224.08 12.53L224.08 12.53L224.08 12.53Q224.22 12.60 224.30 12.62L224.30 12.62L224.30 12.62Q224.38 12.64 224.63 12.71L224.63 12.71L224.63 12.71Q224.88 12.78 225.05 12.82L225.05 12.82L225.05 12.82Q225.54 12.96 226.07 12.96L226.07 12.96L226.35 12.96L226.35 12.96Q227.30 12.96 227.98 12.69L227.98 12.69L227.98 12.69Q228.65 12.42 229.26 11.83L229.26 11.83L229.26 11.83Q230.30 10.84 230.30 8.61L230.30 8.61L230.30 8.61Q230.30 7.49 229.86 6.58L229.86 6.58L229.86 6.58Q229.42 5.67 228.70 5.13L228.70 5.13L228.70 5.13Q227.99 4.59 227.16 4.30L227.16 4.30L227.16 4.30Q226.34 4.02 225.50 4.02L225.50 4.02L225.50 4.02Q225.12 4.02 224.94 4.02L224.94 4.02L224.94 4.02Q224.77 4.02 224.54 4.05L224.54 4.05L224.54 4.05Q224.31 4.09 224.23 4.11L224.23 4.11L224.23 4.11Q224.15 4.13 224.04 4.25L224.04 4.25L224.04 4.25Q223.93 4.37 223.91 4.45L223.91 4.45L223.91 4.45Q223.89 4.54 223.85 4.78L223.85 4.78L223.85 4.78Q223.82 5.03 223.82 5.21L223.82 5.21L223.82 5.21Q223.82 5.39 223.82 5.80L223.82 5.80L223.82 5.80Q223.82 6.10 223.80 7.24L223.80 7.24L223.80 7.24Q223.79 8.39 223.79 8.48L223.79 8.48L223.79 8.48Q223.79 9.32 223.78 10.30L223.78 10.30L223.78 10.30Q223.78 11.28 223.78 11.47ZM239.39 3.65L239.39 3.65L239.39 3.65Q239.39 3.46 239.78 3.46L239.78 3.46L239.78 3.46Q239.83 3.46 239.96 3.47L239.96 3.47L239.96 3.47Q240.09 3.49 240.16 3.49L240.16 3.49L240.16 3.49Q240.20 3.49 241.47 3.52L241.47 3.52L241.47 3.52Q242.75 3.56 243.57 3.56L243.57 3.56L243.57 3.56Q243.87 3.56 245.02 3.53L245.02 3.53L245.02 3.53Q246.18 3.50 246.37 3.50L246.37 3.50L246.37 3.50Q246.64 3.50 246.64 3.82L246.64 3.82L246.64 3.82Q246.64 3.91 246.55 4.38L246.55 4.38L246.55 4.38Q246.47 4.84 246.47 5.25L246.47 5.25L246.47 5.25Q246.47 5.38 246.40 5.47L246.40 5.47L246.40 5.47Q246.33 5.56 246.25 5.56L246.25 5.56L246.25 5.56Q246.04 5.56 246.04 5.26L246.04 5.26L246.04 5.26Q246.04 4.89 245.80 4.58L245.80 4.58L245.80 4.58Q245.56 4.27 245.21 4.26L245.21 4.26L245.21 4.26Q243.95 4.16 243.28 4.16L243.28 4.16L242.91 4.16L242.91 4.16Q242.19 4.16 242.07 4.26L242.07 4.26L242.07 4.26Q241.95 4.37 241.92 5.01L241.92 5.01L241.92 5.01Q241.86 6.02 241.86 7.35L241.86 7.35L241.86 7.35Q241.86 8.05 242.13 8.06L242.13 8.06L242.48 8.06L243.07 8.06L243.50 8.06L243.50 8.06Q244.34 8.06 244.62 8.01L244.62 8.01L244.62 8.01Q244.90 7.95 245.13 7.80L245.13 7.80L245.13 7.80Q245.39 7.62 245.45 7.28L245.45 7.28L245.45 7.28Q245.49 7.04 245.64 7.04L245.64 7.04L245.64 7.04Q245.77 7.04 245.80 7.08L245.80 7.08L245.80 7.08Q245.83 7.13 245.83 7.27L245.83 7.27L245.83 7.27Q245.83 7.36 245.77 7.91L245.77 7.91L245.77 7.91Q245.71 8.46 245.71 8.74L245.71 8.74L245.71 8.74Q245.71 9.00 245.73 9.24L245.73 9.24L245.73 9.24Q245.76 9.48 245.76 9.59L245.76 9.59L245.76 9.59Q245.76 9.94 245.66 9.94L245.66 9.94L245.66 9.94Q245.45 9.94 245.35 9.60L245.35 9.60L245.35 9.60Q245.15 9.02 245 8.92L245 8.92L245 8.92Q244.71 8.72 243.66 8.72L243.66 8.72L243.66 8.72Q243.24 8.72 242.98 8.72L242.98 8.72L242.98 8.72Q242.72 8.72 242.64 8.71L242.64 8.71L242.64 8.71Q242.56 8.71 242.51 8.71L242.51 8.71L242.51 8.71Q242.47 8.71 242.42 8.71L242.42 8.71L242.42 8.71Q241.85 8.71 241.85 8.97L241.85 8.97L241.85 8.97Q241.85 9.38 241.84 9.99L241.84 9.99L241.84 9.99Q241.82 10.60 241.82 10.99L241.82 10.99L241.82 11.55L241.82 11.55Q241.82 12.56 242.16 12.66L242.16 12.66L242.16 12.66Q242.51 12.77 242.76 12.77L242.76 12.77L242.76 12.77Q243.81 12.77 244.60 12.67L244.60 12.67L244.60 12.67Q245.39 12.57 245.79 12.42L245.79 12.42L245.79 12.42Q246.19 12.28 246.46 12.10L246.46 12.10L246.46 12.10Q246.72 11.93 246.80 11.78L246.80 11.78L246.80 11.78Q246.88 11.63 246.95 11.54L246.95 11.54L246.95 11.54Q247.03 11.44 247.11 11.44L247.11 11.44L247.11 11.44Q247.28 11.44 247.28 11.68L247.28 11.68L247.28 11.68Q247.28 12.28 246.68 12.89L246.68 12.89L246.68 12.89Q246.08 13.51 245.63 13.51L245.63 13.51L245.63 13.51Q244.62 13.51 243.35 13.44L243.35 13.44L243.35 13.44Q242.09 13.37 241.78 13.37L241.78 13.37L241.78 13.37Q241.39 13.37 240.80 13.43L240.80 13.43L240.80 13.43Q240.21 13.50 239.88 13.50L239.88 13.50L239.88 13.50Q239.58 13.50 239.58 13.36L239.58 13.36L239.58 13.36Q239.58 13.23 239.58 13.19L239.58 13.19L239.58 13.19Q239.58 13.15 239.62 13.12L239.62 13.12L239.62 13.12Q239.67 13.09 239.72 13.08L239.72 13.08L239.72 13.08Q239.76 13.08 239.90 13.03L239.90 13.03L239.90 13.03Q240.03 12.99 240.18 12.92L240.18 12.92L240.18 12.92Q240.52 12.75 240.63 12.26L240.63 12.26L240.63 12.26Q240.73 11.77 240.73 10.21L240.73 10.21L240.73 8.47L240.73 8.47Q240.73 8.09 240.75 7.29L240.75 7.29L240.75 7.29Q240.77 6.50 240.77 6.05L240.77 6.05L240.77 6.05Q240.77 5.67 240.74 4.77L240.74 4.77L240.74 4.77Q240.73 4.37 240.39 4.14L240.39 4.14L240.39 4.14Q240.06 3.92 239.61 3.91L239.61 3.91L239.61 3.91Q239.39 3.91 239.39 3.65ZM255.18 8.90L255.18 8.90L255.18 8.90Q255.18 7.38 255.77 6.16L255.77 6.16L255.77 6.16Q256.35 4.94 257.58 4.19L257.58 4.19L257.58 4.19Q258.80 3.44 260.48 3.44L260.48 3.44L260.48 3.44Q261.34 3.44 262.21 3.70L262.21 3.70L262.21 3.70Q263.07 3.95 263.59 4.20L263.59 4.20L264.11 4.47L264.11 4.47Q264.15 4.47 264.25 4.40L264.25 4.40L264.25 4.40Q264.35 4.33 264.40 4.33L264.40 4.33L264.40 4.33Q264.47 4.33 264.54 4.38L264.54 4.38L264.54 4.38Q264.61 4.44 264.61 4.55L264.61 4.55L264.61 4.55Q264.63 4.96 264.68 5.41L264.68 5.41L264.68 5.41Q264.73 5.87 264.77 6.16L264.77 6.16L264.77 6.16Q264.81 6.45 264.81 6.51L264.81 6.51L264.81 6.51Q264.81 6.76 264.64 6.76L264.64 6.76L264.64 6.76Q264.52 6.76 264.40 6.57L264.40 6.57L264.40 6.57Q263.05 4.02 260.48 4.02L260.48 4.02L260.48 4.02Q258.73 4.02 257.61 5.14L257.61 5.14L257.61 5.14Q256.49 6.26 256.49 8.06L256.49 8.06L256.49 8.06Q256.49 9.06 256.75 9.93L256.75 9.93L256.75 9.93Q257.01 10.79 257.54 11.51L257.54 11.51L257.54 11.51Q258.06 12.24 258.99 12.66L258.99 12.66L258.99 12.66Q259.91 13.08 261.14 13.08L261.14 13.08L261.14 13.08Q263.16 13.08 264.53 10.98L264.53 10.98L264.53 10.98Q264.59 10.88 264.74 10.88L264.74 10.88L264.74 10.88Q264.87 10.88 264.87 11.07L264.87 11.07L264.87 11.07Q264.87 11.23 264.82 11.49L264.82 11.49L264.82 11.49Q264.77 11.75 264.70 12.06L264.70 12.06L264.70 12.06Q264.63 12.38 264.61 12.45L264.61 12.45L264.61 12.45Q264.59 12.60 264.39 12.70L264.39 12.70L264.39 12.70Q263.63 13.06 263.21 13.24L263.21 13.24L263.21 13.24Q262.78 13.43 262.12 13.57L262.12 13.57L262.12 13.57Q261.46 13.72 260.78 13.72L260.78 13.72L260.78 13.72Q259.56 13.72 258.58 13.43L258.58 13.43L258.58 13.43Q257.60 13.13 256.98 12.66L256.98 12.66L256.98 12.66Q256.35 12.18 255.93 11.54L255.93 11.54L255.93 11.54Q255.51 10.91 255.35 10.25L255.35 10.25L255.35 10.25Q255.18 9.60 255.18 8.90ZM273.14 3.71L273.14 3.71L273.14 3.71Q273.14 3.50 273.53 3.50L273.53 3.50L273.53 3.50Q273.67 3.50 274.18 3.53L274.18 3.53L274.18 3.53Q274.68 3.56 275.11 3.56L275.11 3.56L275.11 3.56Q275.38 3.56 275.62 3.54L275.62 3.54L275.62 3.54Q275.87 3.53 276.35 3.53L276.35 3.53L276.35 3.53Q276.72 3.53 276.72 3.72L276.72 3.72L276.72 3.72Q276.72 3.84 276.08 4.10L276.08 4.10L276.08 4.10Q275.63 4.28 275.63 5.71L275.63 5.71L275.63 5.71Q275.63 7.60 275.61 9.05L275.61 9.05L275.61 9.05Q275.59 10.50 275.59 10.89L275.59 10.89L275.59 10.89Q275.59 12.07 275.94 12.59L275.94 12.59L275.94 12.59Q276.25 13.02 276.61 13.02L276.61 13.02L276.61 13.02Q276.64 13.02 276.75 13.03L276.75 13.03L276.75 13.03Q276.86 13.03 276.89 13.03L276.89 13.03L276.89 13.03Q276.99 13.03 277.09 13.08L277.09 13.08L277.09 13.08Q277.19 13.13 277.19 13.19L277.19 13.19L277.19 13.19Q277.19 13.34 277.11 13.39L277.11 13.39L277.11 13.39Q277.03 13.44 276.84 13.44L276.84 13.44L276.84 13.44Q276.42 13.44 276.06 13.41L276.06 13.41L276.06 13.41Q275.70 13.38 275.51 13.38L275.51 13.38L275.51 13.38Q275.11 13.38 274.65 13.42L274.65 13.42L274.65 13.42Q274.19 13.45 273.97 13.45L273.97 13.45L273.97 13.45Q273.34 13.45 273.34 13.24L273.34 13.24L273.34 13.24Q273.34 13.12 273.47 13.07L273.47 13.07L273.47 13.07Q273.60 13.02 273.77 13.00L273.77 13.00L273.77 13.00Q273.94 12.98 274.12 12.82L274.12 12.82L274.12 12.82Q274.30 12.66 274.37 12.35L274.37 12.35L274.37 12.35Q274.40 12.25 274.46 10.76L274.46 10.76L274.46 10.76Q274.53 9.27 274.53 8.61L274.53 8.61L274.53 7.81L274.53 7.81Q274.53 7.63 274.53 7.12L274.53 7.12L274.53 7.12Q274.54 6.61 274.54 6.30L274.54 6.30L274.54 5.66L274.54 5.66Q274.54 5.04 274.48 4.63L274.48 4.63L274.48 4.63Q274.44 4.30 274.11 4.12L274.11 4.12L274.11 4.12Q273.78 3.93 273.43 3.92L273.43 3.92L273.43 3.92Q273.14 3.91 273.14 3.71ZM285.28 10.82L285.28 10.82L285.28 10.82Q285.28 10.53 285.47 10.53L285.47 10.53L285.47 10.53Q285.66 10.53 285.70 10.67L285.70 10.67L285.70 10.67Q285.84 11.00 285.96 11.25L285.96 11.25L285.96 11.25Q286.08 11.49 286.34 11.85L286.34 11.85L286.34 11.85Q286.61 12.21 286.92 12.44L286.92 12.44L286.92 12.44Q287.22 12.67 287.71 12.84L287.71 12.84L287.71 12.84Q288.19 13.01 288.76 13.01L288.76 13.01L288.76 13.01Q289.81 13.01 290.45 12.45L290.45 12.45L290.45 12.45Q291.09 11.90 291.09 11.00L291.09 11.00L291.09 11.00Q291.09 10.35 290.65 9.90L290.65 9.90L290.65 9.90Q290.22 9.46 289.66 9.27L289.66 9.27L289.66 9.27Q289.10 9.09 288.24 8.77L288.24 8.77L288.24 8.77Q287.38 8.46 286.83 8.13L286.83 8.13L286.83 8.13Q285.56 7.38 285.56 6.08L285.56 6.08L285.56 6.08Q285.56 4.83 286.46 4.08L286.46 4.08L286.46 4.08Q287.36 3.33 288.81 3.33L288.81 3.33L288.81 3.33Q289.34 3.33 290.07 3.56L290.07 3.56L290.07 3.56Q290.81 3.79 290.82 3.79L290.82 3.79L290.82 3.79Q290.86 3.79 290.98 3.74L290.98 3.74L290.98 3.74Q291.09 3.68 291.14 3.68L291.14 3.68L291.14 3.68Q291.33 3.68 291.35 3.79L291.35 3.79L291.35 3.79Q291.65 5.49 291.65 5.70L291.65 5.70L291.65 5.70Q291.65 6.09 291.45 6.09L291.45 6.09L291.45 6.09Q291.33 6.09 291.26 5.89L291.26 5.89L291.26 5.89Q291.09 5.49 290.93 5.24L290.93 5.24L290.93 5.24Q290.77 4.98 290.70 4.91L290.70 4.91L290.70 4.91Q290.63 4.84 290.33 4.58L290.33 4.58L290.33 4.58Q289.58 3.91 288.50 3.91L288.50 3.91L288.50 3.91Q287.63 3.91 287.04 4.33L287.04 4.33L287.04 4.33Q286.45 4.75 286.45 5.46L286.45 5.46L286.45 5.46Q286.45 6.09 286.80 6.50L286.80 6.50L286.80 6.50Q287.14 6.90 287.71 7.13L287.71 7.13L287.71 7.13Q288.29 7.35 288.92 7.55L288.92 7.55L288.92 7.55Q289.55 7.74 290.25 8.09L290.25 8.09L290.25 8.09Q290.96 8.44 291.42 8.93L291.42 8.93L291.42 8.93Q291.98 9.53 291.98 10.43L291.98 10.43L291.98 10.43Q291.98 11.90 291.05 12.76L291.05 12.76L291.05 12.76Q290.11 13.62 288.72 13.62L288.72 13.62L288.72 13.62Q287.76 13.62 287.17 13.52L287.17 13.52L287.17 13.52Q286.58 13.41 285.96 13.09L285.96 13.09L285.96 13.09Q285.78 12.98 285.53 12.00L285.53 12.00L285.53 12.00Q285.28 11.02 285.28 10.82ZM300.08 3.71L300.08 3.71L300.08 3.71Q300.08 3.50 300.47 3.50L300.47 3.50L300.47 3.50Q300.61 3.50 301.11 3.53L301.11 3.53L301.11 3.53Q301.62 3.56 302.05 3.56L302.05 3.56L302.05 3.56Q302.32 3.56 302.56 3.54L302.56 3.54L302.56 3.54Q302.81 3.53 303.28 3.53L303.28 3.53L303.28 3.53Q303.66 3.53 303.66 3.72L303.66 3.72L303.66 3.72Q303.66 3.84 303.02 4.10L303.02 4.10L303.02 4.10Q302.57 4.28 302.57 5.71L302.57 5.71L302.57 5.71Q302.57 7.60 302.55 9.05L302.55 9.05L302.55 9.05Q302.53 10.50 302.53 10.89L302.53 10.89L302.53 10.89Q302.53 12.07 302.88 12.59L302.88 12.59L302.88 12.59Q303.18 13.02 303.55 13.02L303.55 13.02L303.55 13.02Q303.58 13.02 303.69 13.03L303.69 13.03L303.69 13.03Q303.80 13.03 303.83 13.03L303.83 13.03L303.83 13.03Q303.93 13.03 304.02 13.08L304.02 13.08L304.02 13.08Q304.12 13.13 304.12 13.19L304.12 13.19L304.12 13.19Q304.12 13.34 304.04 13.39L304.04 13.39L304.04 13.39Q303.97 13.44 303.77 13.44L303.77 13.44L303.77 13.44Q303.35 13.44 302.99 13.41L302.99 13.41L302.99 13.41Q302.64 13.38 302.44 13.38L302.44 13.38L302.44 13.38Q302.05 13.38 301.59 13.42L301.59 13.42L301.59 13.42Q301.13 13.45 300.90 13.45L300.90 13.45L300.90 13.45Q300.27 13.45 300.27 13.24L300.27 13.24L300.27 13.24Q300.27 13.12 300.40 13.07L300.40 13.07L300.40 13.07Q300.54 13.02 300.71 13.00L300.71 13.00L300.71 13.00Q300.87 12.98 301.06 12.82L301.06 12.82L301.06 12.82Q301.24 12.66 301.31 12.35L301.31 12.35L301.31 12.35Q301.34 12.25 301.40 10.76L301.40 10.76L301.40 10.76Q301.46 9.27 301.46 8.61L301.46 8.61L301.46 7.81L301.46 7.81Q301.46 7.63 301.47 7.12L301.47 7.12L301.47 7.12Q301.48 6.61 301.48 6.30L301.48 6.30L301.48 5.66L301.48 5.66Q301.48 5.04 301.42 4.63L301.42 4.63L301.42 4.63Q301.38 4.30 301.05 4.12L301.05 4.12L301.05 4.12Q300.72 3.93 300.37 3.92L300.37 3.92L300.37 3.92Q300.08 3.91 300.08 3.71ZM312.00 8.69L312.00 8.69L312.00 8.69Q312.00 6.34 313.42 4.84L313.42 4.84L313.42 4.84Q314.83 3.33 317.42 3.33L317.42 3.33L317.42 3.33Q318.63 3.33 319.59 3.68L319.59 3.68L319.59 3.68Q320.56 4.03 321.12 4.54L321.12 4.54L321.12 4.54Q321.68 5.05 322.06 5.71L322.06 5.71L322.06 5.71Q322.43 6.37 322.57 6.92L322.57 6.92L322.57 6.92Q322.71 7.48 322.71 7.95L322.71 7.95L322.71 7.95Q322.71 9.86 321.97 11.16L321.97 11.16L321.97 11.16Q321.23 12.47 320.02 13.07L320.02 13.07L320.02 13.07Q318.81 13.66 317.23 13.66L317.23 13.66L317.23 13.66Q315.56 13.66 314.35 12.94L314.35 12.94L314.35 12.94Q313.14 12.21 312.57 11.10L312.57 11.10L312.57 11.10Q312.00 10.00 312.00 8.69ZM313.24 7.98L313.24 7.98L313.24 7.98Q313.24 8.54 313.39 9.19L313.39 9.19L313.39 9.19Q313.54 9.84 313.89 10.54L313.89 10.54L313.89 10.54Q314.24 11.23 314.74 11.78L314.74 11.78L314.74 11.78Q315.24 12.33 316.00 12.69L316.00 12.69L316.00 12.69Q316.76 13.05 317.67 13.05L317.67 13.05L317.67 13.05Q318.15 13.05 318.67 12.90L318.67 12.90L318.67 12.90Q319.20 12.75 319.72 12.45L319.72 12.45L319.72 12.45Q320.24 12.14 320.64 11.70L320.64 11.70L320.64 11.70Q321.05 11.26 321.31 10.62L321.31 10.62L321.31 10.62Q321.57 9.98 321.57 9.24L321.57 9.24L321.57 9.24Q321.57 6.71 320.24 5.30L320.24 5.30L320.24 5.30Q318.91 3.89 316.95 3.89L316.95 3.89L316.95 3.89Q315.41 3.89 314.32 4.93L314.32 4.93L314.32 4.93Q313.24 5.96 313.24 7.98ZM330.40 3.77L330.40 3.77L330.40 3.77Q330.40 3.68 330.50 3.60L330.50 3.60L330.50 3.60Q330.60 3.53 330.75 3.53L330.75 3.53L330.75 3.53Q330.83 3.53 331.03 3.54L331.03 3.54L331.03 3.54Q331.23 3.54 331.28 3.54L331.28 3.54L331.28 3.54Q331.49 3.54 331.67 3.53L331.67 3.53L331.67 3.53Q331.86 3.51 331.97 3.51L331.97 3.51L331.97 3.51Q332.09 3.51 332.26 3.59L332.26 3.59L332.26 3.59Q332.43 3.67 332.46 3.75L332.46 3.75L332.46 3.75Q332.49 3.79 332.61 3.94L332.61 3.94L332.61 3.94Q332.74 4.09 332.95 4.33L332.95 4.33L332.95 4.33Q333.16 4.56 333.33 4.79L333.33 4.79L333.33 4.79Q335.23 7.27 338.42 10.77L338.42 10.77L338.42 10.77Q338.51 10.86 338.62 10.99L338.62 10.99L338.62 10.99Q338.74 11.12 338.79 11.18L338.79 11.18L338.79 11.18Q338.84 11.24 338.90 11.30L338.90 11.30L338.90 11.30Q338.95 11.35 338.99 11.38L338.99 11.38L338.99 11.38Q339.02 11.40 339.05 11.40L339.05 11.40L339.05 11.40Q339.19 11.40 339.19 10.53L339.19 10.53L339.19 8.89L339.19 8.89Q339.19 7.95 339.18 7.31L339.18 7.31L339.18 7.31Q339.18 6.66 339.17 6.38L339.17 6.38L339.17 6.38Q339.16 6.09 339.16 6.02L339.16 6.02L339.16 5.92L339.16 5.92Q339.16 5.45 339.10 5.11L339.10 5.11L339.10 5.11Q339.04 4.77 338.95 4.59L338.95 4.59L338.95 4.59Q338.87 4.41 338.71 4.28L338.71 4.28L338.71 4.28Q338.55 4.16 338.44 4.12L338.44 4.12L338.44 4.12Q338.32 4.09 338.11 4.05L338.11 4.05L338.11 4.05Q337.90 4.00 337.82 3.98L337.82 3.98L337.82 3.98Q337.54 3.89 337.54 3.74L337.54 3.74L337.54 3.74Q337.54 3.53 337.81 3.53L337.81 3.53L337.81 3.53Q337.89 3.53 338.48 3.54L338.48 3.54L338.48 3.54Q339.07 3.54 339.14 3.54L339.14 3.54L339.14 3.54Q339.47 3.54 339.88 3.53L339.88 3.53L339.88 3.53Q340.30 3.51 340.40 3.51L340.40 3.51L340.40 3.51Q340.63 3.51 340.72 3.56L340.72 3.56L340.72 3.56Q340.82 3.61 340.82 3.75L340.82 3.75L340.82 3.75Q340.82 3.81 340.74 3.86L340.74 3.86L340.74 3.86Q340.66 3.91 340.58 3.94L340.58 3.94L340.58 3.94Q340.49 3.98 340.41 4.00L340.41 4.00L340.33 4.03L340.33 4.03Q339.86 4.28 339.86 5.61L339.86 5.61L339.86 6.15L339.86 6.15Q339.86 7.21 339.79 9.83L339.79 9.83L339.79 9.83Q339.71 12.46 339.71 13.08L339.71 13.08L339.71 13.36L339.71 13.36Q339.71 13.68 339.51 13.68L339.51 13.68L339.51 13.68Q339.39 13.68 339.29 13.58L339.29 13.58L339.29 13.58Q334.64 8.19 333.74 7.17L333.74 7.17L333.74 7.17Q332.84 6.16 332.74 6.16L332.74 6.16L332.74 6.16Q332.60 6.16 332.60 7.11L332.60 7.11L332.60 7.11Q332.60 8.44 332.54 9.97L332.54 9.97L332.54 9.97Q332.49 11.51 332.49 11.65L332.49 11.65L332.49 11.65Q332.49 12.28 332.70 12.61L332.70 12.61L332.70 12.61Q332.92 12.94 333.17 12.98L333.17 12.98L333.17 12.98Q333.42 13.02 333.64 13.07L333.64 13.07L333.64 13.07Q333.86 13.12 333.86 13.26L333.86 13.26L333.86 13.26Q333.86 13.41 333.81 13.45L333.81 13.45L333.81 13.45Q333.76 13.50 333.63 13.50L333.63 13.50L333.63 13.50Q333.54 13.50 333.19 13.48L333.19 13.48L333.19 13.48Q332.85 13.47 332.14 13.47L332.14 13.47L332.14 13.47Q332.01 13.47 331.62 13.48L331.62 13.48L331.62 13.48Q331.23 13.50 330.95 13.50L330.95 13.50L330.95 13.50Q330.64 13.50 330.64 13.27L330.64 13.27L330.64 13.27Q330.64 13.15 330.82 13.11L330.82 13.11L330.82 13.11Q331.00 13.08 331.27 12.89L331.27 12.89L331.27 12.89Q331.53 12.71 331.67 12.21L331.67 12.21L331.67 12.21Q331.76 11.89 331.88 9.60L331.88 9.60L331.88 9.60Q332.01 7.32 332.01 6.45L332.01 6.45L332.01 6.45Q332.01 5.25 331.67 4.65L331.67 4.65L331.67 4.65Q331.34 4.06 330.58 3.98L330.58 3.98L330.58 3.98Q330.40 3.96 330.40 3.77ZM349.12 10.82L349.12 10.82L349.12 10.82Q349.12 10.53 349.31 10.53L349.31 10.53L349.31 10.53Q349.50 10.53 349.54 10.67L349.54 10.67L349.54 10.67Q349.68 11.00 349.80 11.25L349.80 11.25L349.80 11.25Q349.92 11.49 350.18 11.85L350.18 11.85L350.18 11.85Q350.45 12.21 350.76 12.44L350.76 12.44L350.76 12.44Q351.06 12.67 351.55 12.84L351.55 12.84L351.55 12.84Q352.03 13.01 352.60 13.01L352.60 13.01L352.60 13.01Q353.65 13.01 354.29 12.45L354.29 12.45L354.29 12.45Q354.93 11.90 354.93 11.00L354.93 11.00L354.93 11.00Q354.93 10.35 354.49 9.90L354.49 9.90L354.49 9.90Q354.06 9.46 353.50 9.27L353.50 9.27L353.50 9.27Q352.94 9.09 352.08 8.77L352.08 8.77L352.08 8.77Q351.22 8.46 350.67 8.13L350.67 8.13L350.67 8.13Q349.40 7.38 349.40 6.08L349.40 6.08L349.40 6.08Q349.40 4.83 350.30 4.08L350.30 4.08L350.30 4.08Q351.20 3.33 352.65 3.33L352.65 3.33L352.65 3.33Q353.18 3.33 353.91 3.56L353.91 3.56L353.91 3.56Q354.65 3.79 354.66 3.79L354.66 3.79L354.66 3.79Q354.70 3.79 354.82 3.74L354.82 3.74L354.82 3.74Q354.93 3.68 354.98 3.68L354.98 3.68L354.98 3.68Q355.17 3.68 355.19 3.79L355.19 3.79L355.19 3.79Q355.49 5.49 355.49 5.70L355.49 5.70L355.49 5.70Q355.49 6.09 355.29 6.09L355.29 6.09L355.29 6.09Q355.17 6.09 355.10 5.89L355.10 5.89L355.10 5.89Q354.93 5.49 354.77 5.24L354.77 5.24L354.77 5.24Q354.61 4.98 354.54 4.91L354.54 4.91L354.54 4.91Q354.47 4.84 354.17 4.58L354.17 4.58L354.17 4.58Q353.42 3.91 352.34 3.91L352.34 3.91L352.34 3.91Q351.47 3.91 350.88 4.33L350.88 4.33L350.88 4.33Q350.29 4.75 350.29 5.46L350.29 5.46L350.29 5.46Q350.29 6.09 350.64 6.50L350.64 6.50L350.64 6.50Q350.98 6.90 351.55 7.13L351.55 7.13L351.55 7.13Q352.13 7.35 352.76 7.55L352.76 7.55L352.76 7.55Q353.39 7.74 354.09 8.09L354.09 8.09L354.09 8.09Q354.80 8.44 355.26 8.93L355.26 8.93L355.26 8.93Q355.82 9.53 355.82 10.43L355.82 10.43L355.82 10.43Q355.82 11.90 354.89 12.76L354.89 12.76L354.89 12.76Q353.95 13.62 352.56 13.62L352.56 13.62L352.56 13.62Q351.60 13.62 351.01 13.52L351.01 13.52L351.01 13.52Q350.42 13.41 349.80 13.09L349.80 13.09L349.80 13.09Q349.62 12.98 349.37 12.00L349.37 12.00L349.37 12.00Q349.12 11.02 349.12 10.82Z"></path></g></svg>