<svg data-v-423bf9ae="" xmlns="http://www.w3.org/2000/svg" viewBox="0 0 257 90" class="iconLeftSlogan"><!----><defs data-v-423bf9ae=""><linearGradient data-v-423bf9ae="" gradientTransform="rotate(25)" id="6ab14b20-266d-4c5b-9d47-e405f18d34f2" x1="0%" y1="0%" x2="100%" y2="0%"><stop data-v-423bf9ae="" offset="0%" style="stop-color: rgb(102, 108, 53); stop-opacity: 1;"></stop><stop data-v-423bf9ae="" offset="100%" style="stop-color: rgb(119, 214, 54); stop-opacity: 1;"></stop></linearGradient></defs><!----><g data-v-423bf9ae="" id="7aab7ee5-e31c-4ffd-bcbf-7c8c79f6e4a3" fill="#ffffff" transform="matrix(4.743083146983607,0,0,4.743083146983607,172.4341463066927,-13.897233222041187)"><path d="M1.68 2.93L0.27 3.90L0.27 3.90Q0.60 4.09 0.55 6.92L0.55 6.92L0.55 6.92Q0.49 9.76 0.58 10.51L0.58 10.51L0.58 10.51Q0.67 11.25 1.79 12.14L1.79 12.14L1.79 12.14Q2.91 13.02 3.73 12.50L3.73 12.50L3.73 12.50Q4.55 11.98 5.21 11.29L5.21 11.29L5.21 11.29Q5.87 10.60 6.04 9.51L6.04 9.51L6.04 9.51Q6.21 8.43 5.81 7.57L5.81 7.57L5.81 7.57Q5.42 6.71 4.28 6.51L4.28 6.51L4.28 6.51Q3.13 6.31 2.13 7.53L2.13 7.53L2.13 7.53Q2.21 3.88 2.01 3.42L2.01 3.42L2.01 3.42Q1.81 2.97 1.68 2.93L1.68 2.93ZM2.91 7.73L2.91 7.73L2.91 7.73Q3.44 7.65 3.93 8.03L3.93 8.03L3.93 8.03Q4.42 8.40 4.50 9.37L4.50 9.37L4.50 9.37Q4.59 10.34 4.11 11.52L4.11 11.52L4.11 11.52Q3.01 11.94 2.49 11.26L2.49 11.26L2.49 11.26Q1.98 10.58 2.17 8.12L2.17 8.12L2.17 8.12Q2.38 7.81 2.91 7.73ZM9.39 6.62L9.39 6.62L9.39 6.62Q9.00 6.77 8.67 6.99L8.67 6.99L8.67 6.99Q8.33 7.21 7.98 7.49L7.98 7.49L7.98 7.49Q5.52 9.38 7.12 11.66L7.12 11.66L7.12 11.66Q7.57 12.21 8.04 12.45L8.04 12.45L8.04 12.45Q8.50 12.69 9.15 12.70L9.15 12.70L9.15 12.70Q9.80 12.70 10.48 12.07L10.48 12.07L10.48 12.07Q11.16 11.44 11.60 10.79L11.60 10.79L11.38 10.60L11.38 10.60Q11.21 10.82 10.94 11.07L10.94 11.07L10.94 11.07Q10.66 11.32 10.23 11.32L10.23 11.32L10.23 11.32Q9.80 11.33 9.29 10.99L9.29 10.99L9.29 10.99Q7.76 10.14 8.09 8.37L8.09 8.37L8.09 8.37Q8.27 7.62 9.13 7.85L9.13 7.85L9.13 7.85Q9.86 8.12 10.14 8.98L10.14 8.98L11.48 7.93L11.48 7.93Q11.46 7.33 11.03 7.00L11.03 7.00L11.03 7.00Q10.60 6.66 10.19 6.56L10.19 6.56L10.19 6.56Q9.77 6.47 9.39 6.62ZM13.60 6.58L12.04 7.85L12.11 8.07L12.11 8.07Q12.67 7.59 12.48 10.69L12.48 10.69L11.90 11.17L11.90 11.17Q12.11 11.39 12.50 11.69L12.50 11.69L12.50 11.69Q12.35 14.22 12.69 14.82L12.69 14.82L12.69 14.82Q13.04 15.42 13.64 15.58L13.64 15.58L14.89 14.32L14.76 14.10L14.76 14.10Q13.90 14.38 14.01 12.28L14.01 12.28L14.01 12.28Q14.78 12.50 15.48 12.09L15.48 12.09L15.48 12.09Q16.17 11.69 16.82 10.87L16.82 10.87L16.82 10.87Q17.47 10.05 17.66 9.45L17.66 9.45L17.66 9.45Q17.84 8.85 17.47 7.81L17.47 7.81L17.47 7.81Q17.09 6.77 15.55 6.49L15.55 6.49L14.12 7.72L14.12 7.72Q14.16 7.02 13.60 6.58L13.60 6.58ZM14.70 7.92L14.70 7.92Q15.70 8.03 16.11 9.19L16.11 9.19L16.11 9.19Q16.52 10.34 16.07 11.06L16.07 11.06L16.07 11.06Q15.61 11.77 14.12 10.75L14.12 10.75L14.10 8.14L14.70 7.92Z"></path></g><!----><g data-v-423bf9ae="" id="4efe8b15-9e67-4115-9468-a5c531050c0c" transform="matrix(4.803586662404586,0,0,4.803586662404586,0.14261340152661717,-31.22538662899096)" stroke="none" fill="#ffffff"><path d="M16 19.586l7.496-12.954H8.504zM7.496 12.414L0 25.368h14.992zM24.504 12.414l-7.496 12.954H32z"></path></g><!----><g data-v-423bf9ae="" id="8bb82ffa-b5df-4280-9db8-7fad86ec7986" fill="#ffffff" transform="matrix(0.20577869965354711,0,0,0.20577869965354711,173.71271544610786,59.271542344152294)"><path d="M0.34 19.81L0.34 19.81L0.34 19.81Q0.14 19.75 0.11 19.39L0.11 19.39L0.11 19.39Q0.06 19.21 0.04 18.96L0.04 18.96L0.04 18.96Q0.01 18.70 0.01 18.38L0.01 18.38L0.01 18.38Q0.01 18.09 0.11 17.58L0.11 17.58L0.11 17.58Q0.21 17.07 0.39 16.42L0.39 16.42L0.39 16.42Q0.56 15.78 0.81 15.03L0.81 15.03L0.81 15.03Q1.06 14.28 1.37 13.51L1.37 13.51L1.37 13.51Q1.75 12.54 2.03 11.84L2.03 11.84L2.03 11.84Q2.31 11.13 2.50 10.61L2.50 10.61L2.50 10.61Q2.69 10.09 2.81 9.76L2.81 9.76L2.81 9.76Q2.93 9.42 3.00 9.18L3.00 9.18L3.00 9.18Q3.05 9.02 3.16 8.78L3.16 8.78L3.16 8.78Q3.28 8.54 3.42 8.29L3.42 8.29L3.42 8.29Q3.57 8.05 3.72 7.83L3.72 7.83L3.72 7.83Q3.88 7.62 4.00 7.50L4.00 7.50L4.00 7.50Q4.49 7.57 4.93 7.76L4.93 7.76L4.93 7.76Q5.36 7.94 5.46 8.11L5.46 8.11L5.46 8.11Q5.26 8.29 5.01 8.67L5.01 8.67L5.01 8.67Q4.76 9.06 4.52 9.51L4.52 9.51L4.52 9.51Q4.28 9.97 4.09 10.44L4.09 10.44L4.09 10.44Q3.89 10.92 3.79 11.28L3.79 11.28L3.79 11.28Q3.93 11.05 4.16 10.77L4.16 10.77L4.16 10.77Q4.38 10.49 4.84 10.00L4.84 10.00L4.84 10.00Q5.36 9.46 5.82 9.18L5.82 9.18L5.82 9.18Q6.27 8.89 6.61 8.89L6.61 8.89L6.61 8.89Q7.14 8.89 7.48 9.18L7.48 9.18L7.48 9.18Q7.83 9.48 7.83 9.94L7.83 9.94L7.83 9.94Q7.83 10.95 7.49 11.94L7.49 11.94L7.49 11.94Q7.15 12.92 6.52 13.72L6.52 13.72L6.52 13.72Q6.29 14.03 5.96 14.31L5.96 14.31L5.96 14.31Q5.64 14.59 5.29 14.80L5.29 14.80L5.29 14.80Q4.94 15.02 4.61 15.15L4.61 15.15L4.61 15.15Q4.27 15.27 4.00 15.27L4.00 15.27L4.00 15.27Q3.75 15.27 3.56 15.17L3.56 15.17L3.56 15.17Q3.37 15.06 3.30 14.91L3.30 14.91L3.30 14.91Q3.85 14.59 4.37 14.01L4.37 14.01L4.37 14.01Q4.89 13.44 5.33 12.69L5.33 12.69L5.33 12.69Q5.77 11.94 6.10 11.07L6.10 11.07L6.10 11.07Q6.43 10.21 6.59 9.31L6.59 9.31L6.59 9.31Q6.06 9.59 5.63 9.92L5.63 9.92L5.63 9.92Q5.21 10.25 4.79 10.78L4.79 10.78L4.79 10.78Q4.28 11.40 3.99 11.77L3.99 11.77L3.99 11.77Q3.70 12.15 3.51 12.42L3.51 12.42L3.51 12.42Q3.32 12.68 3.20 12.91L3.20 12.91L3.20 12.91Q3.08 13.15 2.94 13.48L2.94 13.48L2.94 13.48Q2.74 13.93 2.48 14.67L2.48 14.67L2.48 14.67Q2.23 15.40 1.95 16.31L1.95 16.31L1.95 16.31Q1.68 17.22 1.41 18.25L1.41 18.25L1.41 18.25Q1.13 19.28 0.88 20.30L0.88 20.30L0.88 20.30Q0.73 20.27 0.62 20.08L0.62 20.08L0.62 20.08Q0.50 19.95 0.46 19.89L0.46 19.89L0.46 19.89Q0.41 19.84 0.34 19.81ZM14.99 14.90L14.99 14.90L14.99 14.90Q15.06 14.49 15.24 13.82L15.24 13.82L15.24 13.82Q15.41 13.16 15.65 12.41L15.65 12.41L15.65 12.41Q15.89 11.66 16.16 10.91L16.16 10.91L16.16 10.91Q16.42 10.15 16.67 9.55L16.67 9.55L16.67 9.55Q16.86 9.11 17.00 8.87L17.00 8.87L17.00 8.87Q17.14 8.62 17.30 8.46L17.30 8.46L17.30 8.46Q17.50 8.48 17.71 8.55L17.71 8.55L17.71 8.55Q17.92 8.62 18.12 8.72L18.12 8.72L18.12 8.72Q18.31 8.82 18.47 8.93L18.47 8.93L18.47 8.93Q18.62 9.03 18.70 9.13L18.70 9.13L18.70 9.13Q18.33 9.58 18.04 10.15L18.04 10.15L18.04 10.15Q17.75 10.72 17.46 11.62L17.46 11.62L17.46 11.62Q18.21 10.95 18.80 10.33L18.80 10.33L18.80 10.33Q19.38 9.72 19.88 8.96L19.88 8.96L19.88 8.96Q19.96 8.89 20.17 8.89L20.17 8.89L20.17 8.89Q20.37 8.89 20.55 8.95L20.55 8.95L20.55 8.95Q20.73 9.02 20.80 9.13L20.80 9.13L20.80 9.13Q20.55 9.80 20.55 10.46L20.55 10.46L20.55 10.46Q20.55 11.07 20.73 11.38L20.73 11.38L20.73 11.38Q20.72 11.47 20.55 11.70L20.55 11.70L20.55 11.70Q20.37 11.94 20.16 12.15L20.16 12.15L20.16 12.15Q19.78 11.96 19.49 11.61L19.49 11.61L19.49 11.61Q19.19 11.27 19.05 10.86L19.05 10.86L19.05 10.86Q18.40 11.33 17.93 11.77L17.93 11.77L17.93 11.77Q17.47 12.21 17.14 12.75L17.14 12.75L17.14 12.75Q16.81 13.29 16.58 13.99L16.58 13.99L16.58 13.99Q16.35 14.69 16.14 15.65L16.14 15.65L16.14 15.65Q16.02 15.64 15.84 15.56L15.84 15.56L15.84 15.56Q15.67 15.48 15.49 15.37L15.49 15.37L15.49 15.37Q15.32 15.26 15.18 15.13L15.18 15.13L15.18 15.13Q15.04 15.01 14.99 14.90ZM29.62 15.67L29.62 15.67L29.62 15.67Q28.83 15.58 28.35 14.97L28.35 14.97L28.35 14.97Q27.87 14.35 27.87 13.40L27.87 13.40L27.87 13.40Q27.87 12.84 28.04 12.24L28.04 12.24L28.04 12.24Q28.21 11.63 28.52 11.07L28.52 11.07L28.52 11.07Q28.83 10.50 29.25 10.00L29.25 10.00L29.25 10.00Q29.67 9.49 30.16 9.13L30.16 9.13L30.16 9.13Q30.93 8.55 31.60 8.55L31.60 8.55L31.60 8.55Q32.05 8.79 32.48 9.55L32.48 9.55L32.48 9.55Q32.55 9.55 32.61 9.54L32.61 9.54L32.61 9.54Q32.66 9.53 32.73 9.53L32.73 9.53L32.73 9.53Q33.47 9.53 33.47 10.85L33.47 10.85L33.47 10.85Q33.47 11.73 33.19 12.52L33.19 12.52L33.19 12.52Q32.90 13.31 32.39 13.96L32.39 13.96L32.39 13.96Q31.88 14.60 31.17 15.04L31.17 15.04L31.17 15.04Q30.46 15.48 29.62 15.67ZM30.34 11.26L30.34 11.26L30.34 11.26Q30.10 11.58 29.89 11.96L29.89 11.96L29.89 11.96Q29.68 12.33 29.53 12.72L29.53 12.72L29.53 12.72Q29.37 13.10 29.29 13.46L29.29 13.46L29.29 13.46Q29.20 13.82 29.20 14.10L29.20 14.10L29.20 14.10Q29.20 14.43 29.32 14.74L29.32 14.74L29.32 14.74Q29.43 15.05 29.57 15.09L29.57 15.09L29.57 15.09Q30.20 14.95 30.72 14.57L30.72 14.57L30.72 14.57Q31.25 14.18 31.63 13.61L31.63 13.61L31.63 13.61Q32.02 13.03 32.23 12.31L32.23 12.31L32.23 12.31Q32.45 11.58 32.45 10.75L32.45 10.75L32.45 10.75Q32.45 10.39 32.41 10.18L32.41 10.18L32.41 10.18Q32.37 9.97 32.27 9.81L32.27 9.81L32.27 9.81Q31.65 10.00 31.17 10.40L31.17 10.40L31.17 10.40Q30.69 10.81 30.34 11.26ZM41.82 10.22L41.82 10.22L41.82 10.22Q41.82 9.97 41.85 9.74L41.85 9.74L41.85 9.74Q41.89 9.52 42.00 9.36L42.00 9.36L42.00 9.36Q42.11 9.20 42.31 9.11L42.31 9.11L42.31 9.11Q42.50 9.02 42.83 9.02L42.83 9.02L42.83 9.02Q43.02 9.02 43.27 9.06L43.27 9.06L43.27 9.06Q43.51 9.10 43.62 9.21L43.62 9.21L43.62 9.21Q43.57 9.45 43.53 9.63L43.53 9.63L43.53 9.63Q43.50 9.81 43.48 10.03L43.48 10.03L43.48 10.03Q43.46 10.25 43.44 10.55L43.44 10.55L43.44 10.55Q43.43 10.85 43.41 11.33L43.41 11.33L43.41 11.33Q43.39 12.28 43.32 13.03L43.32 13.03L43.32 13.03Q43.26 13.78 43.04 14.52L43.04 14.52L43.04 14.52Q43.04 14.57 43.08 14.57L43.08 14.57L43.08 14.57Q43.29 14.42 43.55 14.13L43.55 14.13L43.55 14.13Q43.82 13.83 44.11 13.46L44.11 13.46L44.11 13.46Q44.41 13.09 44.70 12.67L44.70 12.67L44.70 12.67Q45.00 12.25 45.25 11.84L45.25 11.84L45.25 11.84Q45.58 11.26 45.99 10.37L45.99 10.37L45.99 10.37Q46.40 9.49 46.66 8.48L46.66 8.48L46.66 8.48Q46.75 8.48 46.88 8.52L46.88 8.52L46.88 8.52Q47.01 8.55 47.15 8.60L47.15 8.60L47.15 8.60Q47.28 8.65 47.38 8.71L47.38 8.71L47.38 8.71Q47.49 8.76 47.53 8.81L47.53 8.81L47.53 8.81Q47.50 9.41 47.24 10.04L47.24 10.04L47.24 10.04Q46.98 10.67 46.62 11.26L46.62 11.26L46.62 11.26Q46.26 11.84 45.85 12.36L45.85 12.36L45.85 12.36Q45.44 12.88 45.11 13.26L45.11 13.26L45.11 13.26Q44.44 14.04 43.76 14.66L43.76 14.66L43.76 14.66Q43.08 15.27 42.14 15.85L42.14 15.85L42.14 15.85Q41.78 15.71 41.57 15.48L41.57 15.48L41.57 15.48Q41.36 15.25 41.36 14.99L41.36 14.99L41.36 14.99Q41.36 14.83 41.43 14.61L41.43 14.61L41.43 14.61Q41.51 14.39 41.61 14.05L41.61 14.05L41.61 14.05Q41.71 13.71 41.78 13.19L41.78 13.19L41.78 13.19Q41.86 12.67 41.86 11.87L41.86 11.87L41.86 11.87Q41.86 11.41 41.84 10.94L41.84 10.94L41.84 10.94Q41.82 10.47 41.82 10.22ZM54.33 14.24L54.33 14.24L54.33 14.24Q54.33 14.11 54.36 13.92L54.36 13.92L54.36 13.92Q54.38 13.73 54.43 13.42L54.43 13.42L54.43 13.42Q54.49 13.10 54.58 12.66L54.58 12.66L54.58 12.66Q54.67 12.21 54.81 11.58L54.81 11.58L54.81 11.58Q54.84 11.44 54.94 11.13L54.94 11.13L54.94 11.13Q55.03 10.82 55.20 10.48L55.20 10.48L55.20 10.48Q55.36 10.14 55.59 9.81L55.59 9.81L55.59 9.81Q55.82 9.49 56.14 9.34L56.14 9.34L56.14 9.34Q56.38 9.39 56.77 9.63L56.77 9.63L56.77 9.63Q57.16 9.86 57.44 10.26L57.44 10.26L57.44 10.26Q57.12 10.63 56.90 10.99L56.90 10.99L56.90 10.99Q56.69 11.35 56.51 11.75L56.51 11.75L56.51 11.75Q56.34 12.14 56.19 12.56L56.19 12.56L56.19 12.56Q56.04 12.98 55.86 13.44L55.86 13.44L55.86 13.44Q55.71 13.83 55.58 14.25L55.58 14.25L55.58 14.25Q55.45 14.66 55.44 14.97L55.44 14.97L55.44 14.97Q55.44 15.22 55.43 15.32L55.43 15.32L55.43 15.32Q55.43 15.43 55.36 15.43L55.36 15.43L55.36 15.43Q55.30 15.43 55.13 15.36L55.13 15.36L55.13 15.36Q54.96 15.29 54.79 15.14L54.79 15.14L54.79 15.14Q54.61 14.99 54.47 14.77L54.47 14.77L54.47 14.77Q54.33 14.55 54.33 14.24ZM57.01 8.16L57.01 8.16L57.01 8.16Q57.01 8.08 57.05 7.91L57.05 7.91L57.05 7.91Q56.98 7.84 56.93 7.70L56.93 7.70L56.93 7.70Q56.88 7.56 56.88 7.45L56.88 7.45L56.88 7.45Q56.88 7.32 56.92 7.11L56.92 7.11L56.92 7.11Q56.95 6.89 57.01 6.64L57.01 6.64L57.01 6.64Q57.06 6.38 57.15 6.11L57.15 6.11L57.15 6.11Q57.23 5.84 57.32 5.61L57.32 5.61L57.32 5.61Q57.48 5.61 57.73 5.71L57.73 5.71L57.73 5.71Q57.97 5.80 58.23 5.94L58.23 5.94L58.23 5.94Q58.48 6.09 58.69 6.27L58.69 6.27L58.69 6.27Q58.90 6.44 59.01 6.59L59.01 6.59L59.01 6.59Q58.86 6.75 58.60 7.02L58.60 7.02L58.60 7.02Q58.35 7.29 58.11 7.59L58.11 7.59L58.11 7.59Q57.88 7.90 57.68 8.16L57.68 8.16L57.68 8.16Q57.48 8.43 57.43 8.54L57.43 8.54L57.43 8.54Q57.26 8.51 57.13 8.39L57.13 8.39L57.13 8.39Q57.01 8.27 57.01 8.16ZM67.68 8.64L67.68 8.64L67.68 8.64Q67.96 8.64 68.32 8.81L68.32 8.81L68.32 8.81Q68.68 8.97 68.96 9.24L68.96 9.24L68.96 9.24Q68.89 8.68 68.79 8.18L68.79 8.18L68.79 8.18Q68.68 7.69 68.48 7.15L68.48 7.15L68.48 7.15Q68.28 6.62 67.94 5.99L67.94 5.99L67.94 5.99Q67.61 5.36 67.10 4.55L67.10 4.55L67.10 4.55Q67.14 4.42 67.29 4.26L67.29 4.26L67.29 4.26Q67.44 4.09 67.63 3.94L67.63 3.94L67.63 3.94Q67.82 3.79 68.02 3.68L68.02 3.68L68.02 3.68Q68.22 3.57 68.40 3.54L68.40 3.54L68.40 3.54Q68.80 3.98 69.15 4.63L69.15 4.63L69.15 4.63Q69.50 5.28 69.76 6.03L69.76 6.03L69.76 6.03Q70.03 6.78 70.18 7.57L70.18 7.57L70.18 7.57Q70.32 8.37 70.32 9.10L70.32 9.10L70.32 9.10Q70.32 9.83 70.16 10.60L70.16 10.60L70.16 10.60Q70 11.37 69.71 12.10L69.71 12.10L69.71 12.10Q69.43 12.84 69.05 13.50L69.05 13.50L69.05 13.50Q68.67 14.15 68.23 14.67L68.23 14.67L68.23 14.67Q67.79 15.19 67.31 15.52L67.31 15.52L67.31 15.52Q66.84 15.85 66.36 15.93L66.36 15.93L66.36 15.93Q65.39 15.82 64.88 15.31L64.88 15.31L64.88 15.31Q64.37 14.80 64.37 13.90L64.37 13.90L64.37 13.90Q64.37 13.43 64.52 12.87L64.52 12.87L64.52 12.87Q64.67 12.31 64.91 11.75L64.91 11.75L64.91 11.75Q65.16 11.20 65.48 10.68L65.48 10.68L65.48 10.68Q65.81 10.15 66.19 9.73L66.19 9.73L66.19 9.73Q66.56 9.31 66.93 9.02L66.93 9.02L66.93 9.02Q67.31 8.72 67.68 8.64ZM66.25 15.37L66.25 15.37L66.25 15.37Q66.74 15.20 67.23 14.63L67.23 14.63L67.23 14.63Q67.72 14.06 68.11 13.28L68.11 13.28L68.11 13.28Q68.50 12.50 68.75 11.61L68.75 11.61L68.75 11.61Q68.99 10.72 68.99 9.90L68.99 9.90L68.99 9.90Q68.99 9.66 68.99 9.60L68.99 9.60L68.99 9.60Q68.99 9.55 68.98 9.49L68.98 9.49L68.98 9.49Q68.64 9.63 68.26 9.97L68.26 9.97L68.26 9.97Q67.89 10.30 67.51 10.75L67.51 10.75L67.51 10.75Q67.13 11.19 66.79 11.70L66.79 11.70L66.79 11.70Q66.46 12.22 66.19 12.74L66.19 12.74L66.19 12.74Q65.93 13.26 65.77 13.73L65.77 13.73L65.77 13.73Q65.62 14.21 65.62 14.57L65.62 14.57L65.62 14.57Q65.62 15.27 66.25 15.37ZM77.70 14.24L77.70 14.24L77.70 14.24Q77.70 14.11 77.72 13.92L77.72 13.92L77.72 13.92Q77.74 13.73 77.80 13.42L77.80 13.42L77.80 13.42Q77.85 13.10 77.95 12.66L77.95 12.66L77.95 12.66Q78.04 12.21 78.18 11.58L78.18 11.58L78.18 11.58Q78.20 11.44 78.30 11.13L78.30 11.13L78.30 11.13Q78.40 10.82 78.56 10.48L78.56 10.48L78.56 10.48Q78.72 10.14 78.95 9.81L78.95 9.81L78.95 9.81Q79.18 9.49 79.51 9.34L79.51 9.34L79.51 9.34Q79.74 9.39 80.14 9.63L80.14 9.63L80.14 9.63Q80.53 9.86 80.81 10.26L80.81 10.26L80.81 10.26Q80.49 10.63 80.27 10.99L80.27 10.99L80.27 10.99Q80.05 11.35 79.88 11.75L79.88 11.75L79.88 11.75Q79.70 12.14 79.56 12.56L79.56 12.56L79.56 12.56Q79.41 12.98 79.23 13.44L79.23 13.44L79.23 13.44Q79.07 13.83 78.95 14.25L78.95 14.25L78.95 14.25Q78.82 14.66 78.81 14.97L78.81 14.97L78.81 14.97Q78.81 15.22 78.80 15.32L78.80 15.32L78.80 15.32Q78.79 15.43 78.72 15.43L78.72 15.43L78.72 15.43Q78.67 15.43 78.50 15.36L78.50 15.36L78.50 15.36Q78.33 15.29 78.16 15.14L78.16 15.14L78.16 15.14Q77.98 14.99 77.84 14.77L77.84 14.77L77.84 14.77Q77.70 14.55 77.70 14.24ZM80.37 8.16L80.37 8.16L80.37 8.16Q80.37 8.08 80.42 7.91L80.42 7.91L80.42 7.91Q80.35 7.84 80.30 7.70L80.30 7.70L80.30 7.70Q80.25 7.56 80.25 7.45L80.25 7.45L80.25 7.45Q80.25 7.32 80.28 7.11L80.28 7.11L80.28 7.11Q80.32 6.89 80.37 6.64L80.37 6.64L80.37 6.64Q80.43 6.38 80.51 6.11L80.51 6.11L80.51 6.11Q80.60 5.84 80.68 5.61L80.68 5.61L80.68 5.61Q80.85 5.61 81.09 5.71L81.09 5.71L81.09 5.71Q81.34 5.80 81.59 5.94L81.59 5.94L81.59 5.94Q81.84 6.09 82.05 6.27L82.05 6.27L82.05 6.27Q82.26 6.44 82.38 6.59L82.38 6.59L82.38 6.59Q82.22 6.75 81.97 7.02L81.97 7.02L81.97 7.02Q81.72 7.29 81.48 7.59L81.48 7.59L81.48 7.59Q81.24 7.90 81.05 8.16L81.05 8.16L81.05 8.16Q80.85 8.43 80.79 8.54L80.79 8.54L80.79 8.54Q80.63 8.51 80.50 8.39L80.50 8.39L80.50 8.39Q80.37 8.27 80.37 8.16ZM90.26 8.39L90.26 8.39L90.26 8.39Q90.62 8.50 90.94 8.88L90.94 8.88L90.94 8.88Q91.27 9.27 91.42 9.73L91.42 9.73L91.42 9.73Q91.27 10.11 90.94 10.64L90.94 10.64L90.94 10.64Q90.62 11.17 90.30 11.72L90.30 11.72L90.30 11.72Q89.98 12.28 89.72 12.78L89.72 12.78L89.72 12.78Q89.46 13.27 89.42 13.59L89.42 13.59L89.42 13.59Q89.64 13.36 89.92 13.04L89.92 13.04L89.92 13.04Q90.19 12.73 90.45 12.41L90.45 12.41L90.45 12.41Q90.71 12.10 90.93 11.84L90.93 11.84L90.93 11.84Q91.15 11.58 91.28 11.45L91.28 11.45L91.28 11.45Q91.55 11.17 91.91 10.80L91.91 10.80L91.91 10.80Q92.27 10.43 92.67 10.10L92.67 10.10L92.67 10.10Q93.07 9.77 93.48 9.54L93.48 9.54L93.48 9.54Q93.88 9.31 94.22 9.31L94.22 9.31L94.22 9.31Q94.58 9.31 94.83 9.55L94.83 9.55L94.83 9.55Q95.07 9.80 95.21 10.07L95.21 10.07L95.21 10.07Q95.21 10.09 95.11 10.14L95.11 10.14L95.11 10.14Q95.00 10.19 94.81 10.42L94.81 10.42L94.81 10.42Q94.61 10.67 94.37 11.11L94.37 11.11L94.37 11.11Q94.12 11.55 93.89 12.06L93.89 12.06L93.89 12.06Q93.66 12.57 93.51 13.10L93.51 13.10L93.51 13.10Q93.35 13.64 93.35 14.07L93.35 14.07L93.35 14.07Q93.35 14.42 93.44 14.52L93.44 14.52L93.44 14.52Q93.53 14.62 93.70 14.62L93.70 14.62L93.70 14.62Q93.86 14.62 94.02 14.55L94.02 14.55L94.02 14.55Q94.19 14.48 94.29 14.48L94.29 14.48L94.29 14.48Q94.35 14.50 94.38 14.60L94.38 14.60L94.38 14.60Q94.42 14.69 94.42 14.76L94.42 14.76L94.42 14.76Q94.30 14.85 94.15 14.95L94.15 14.95L94.15 14.95Q94.00 15.05 93.83 15.13L93.83 15.13L93.83 15.13Q93.66 15.22 93.50 15.27L93.50 15.27L93.50 15.27Q93.34 15.33 93.21 15.33L93.21 15.33L93.21 15.33Q92.81 15.33 92.55 15.21L92.55 15.21L92.55 15.21Q92.29 15.09 92.14 14.90L92.14 14.90L92.14 14.90Q91.99 14.70 91.94 14.43L91.94 14.43L91.94 14.43Q91.88 14.15 91.88 13.85L91.88 13.85L91.88 13.85Q91.88 13.68 91.91 13.47L91.91 13.47L91.91 13.47Q91.94 13.26 92.02 12.97L92.02 12.97L92.02 12.97Q92.11 12.68 92.26 12.29L92.26 12.29L92.26 12.29Q92.41 11.89 92.65 11.33L92.65 11.33L92.65 11.33Q92.62 11.33 92.27 11.52L92.27 11.52L92.27 11.52Q91.92 11.72 91.52 12.12L91.52 12.12L91.52 12.12Q90.86 12.75 90.34 13.37L90.34 13.37L90.34 13.37Q89.81 13.99 89.26 14.74L89.26 14.74L89.26 14.74Q88.96 15.18 88.73 15.48L88.73 15.48L88.73 15.48Q88.49 15.78 88.33 15.88L88.33 15.88L88.33 15.88Q88.03 15.71 87.89 15.41L87.89 15.41L87.89 15.41Q87.75 15.11 87.68 14.78L87.68 14.78L87.68 14.78Q87.68 14.52 87.76 14.11L87.76 14.11L87.76 14.11Q87.84 13.71 87.97 13.21L87.97 13.21L87.97 13.21Q88.10 12.71 88.30 12.17L88.30 12.17L88.30 12.17Q88.49 11.62 88.73 11.07L88.73 11.07L88.73 11.07Q89.26 9.84 89.70 9.14L89.70 9.14L89.70 9.14Q90.15 8.44 90.26 8.39ZM99.72 19.35L99.72 19.35L99.72 19.35Q99.72 19.26 99.78 19.19L99.78 19.19L99.78 19.19Q99.83 19.12 99.90 19.05L99.90 19.05L99.90 19.05Q100.07 19.21 100.19 19.29L100.19 19.29L100.19 19.29Q100.31 19.38 100.42 19.43L100.42 19.43L100.42 19.43Q100.52 19.49 100.63 19.50L100.63 19.50L100.63 19.50Q100.74 19.52 100.90 19.52L100.90 19.52L100.90 19.52Q101.63 19.52 102.28 19.13L102.28 19.13L102.28 19.13Q102.94 18.75 103.52 18.02L103.52 18.02L103.52 18.02Q104.10 17.29 104.58 16.24L104.58 16.24L104.58 16.24Q105.06 15.19 105.42 13.86L105.42 13.86L105.42 13.86Q105.25 14.03 105.01 14.23L105.01 14.23L105.01 14.23Q104.76 14.43 104.50 14.62L104.50 14.62L104.50 14.62Q104.23 14.80 103.97 14.95L103.97 14.95L103.97 14.95Q103.71 15.11 103.53 15.18L103.53 15.18L103.53 15.18Q103.29 15.13 103.09 14.97L103.09 14.97L103.09 14.97Q102.89 14.81 102.73 14.57L102.73 14.57L102.73 14.57Q102.58 14.34 102.49 14.04L102.49 14.04L102.49 14.04Q102.41 13.73 102.41 13.40L102.41 13.40L102.41 13.40Q102.41 12.85 102.61 12.28L102.61 12.28L102.61 12.28Q102.82 11.70 103.15 11.15L103.15 11.15L103.15 11.15Q103.49 10.60 103.94 10.11L103.94 10.11L103.94 10.11Q104.40 9.62 104.91 9.25L104.91 9.25L104.91 9.25Q105.42 8.89 105.95 8.67L105.95 8.67L105.95 8.67Q106.47 8.46 106.97 8.46L106.97 8.46L106.97 8.46Q107.46 8.46 107.71 8.66L107.71 8.66L107.71 8.66Q107.95 8.86 108.07 9.35L108.07 9.35L108.07 9.35Q107.91 9.27 107.67 9.27L107.67 9.27L107.67 9.27Q107.34 9.27 106.90 9.53L106.90 9.53L106.90 9.53Q106.46 9.80 106.00 10.23L106.00 10.23L106.00 10.23Q105.55 10.65 105.10 11.21L105.10 11.21L105.10 11.21Q104.65 11.76 104.31 12.33L104.31 12.33L104.31 12.33Q103.96 12.91 103.75 13.45L103.75 13.45L103.75 13.45Q103.53 14 103.53 14.43L103.53 14.43L103.53 14.43Q103.53 14.53 103.54 14.55L103.54 14.55L103.54 14.55Q103.56 14.57 103.59 14.57L103.59 14.57L103.59 14.57Q103.71 14.57 103.93 14.43L103.93 14.43L103.93 14.43Q104.15 14.29 104.42 14.08L104.42 14.08L104.42 14.08Q104.69 13.86 104.99 13.57L104.99 13.57L104.99 13.57Q105.28 13.29 105.55 12.99L105.55 12.99L105.55 12.99Q106.15 12.32 106.65 11.49L106.65 11.49L106.65 11.49Q107.14 10.65 107.44 9.87L107.44 9.87L107.44 9.87Q107.81 9.90 108.11 10.00L108.11 10.00L108.11 10.00Q108.40 10.09 108.51 10.21L108.51 10.21L108.51 10.21Q108.04 11.30 107.75 12.04L107.75 12.04L107.75 12.04Q107.46 12.78 107.25 13.36L107.25 13.36L107.25 13.36Q106.88 14.36 106.55 15.20L106.55 15.20L106.55 15.20Q106.22 16.03 105.88 16.74L105.88 16.74L105.88 16.74Q105.53 17.44 105.13 18.05L105.13 18.05L105.13 18.05Q104.73 18.66 104.23 19.22L104.23 19.22L104.23 19.22Q103.99 19.49 103.69 19.69L103.69 19.69L103.69 19.69Q103.39 19.89 103.08 20.03L103.08 20.03L103.08 20.03Q102.76 20.17 102.46 20.24L102.46 20.24L102.46 20.24Q102.16 20.31 101.91 20.31L101.91 20.31L101.91 20.31Q101.57 20.31 101.22 20.24L101.22 20.24L101.22 20.24Q100.87 20.16 100.57 20.03L100.57 20.03L100.57 20.03Q100.27 19.89 100.04 19.72L100.04 19.72L100.04 19.72Q99.82 19.54 99.72 19.35ZM126.17 14.94L126.17 14.94L126.17 14.94Q126.17 14.45 126.27 13.78L126.27 13.78L126.27 13.78Q126.36 13.12 126.55 12.36L126.55 12.36L126.55 12.36Q126.74 11.61 127.00 10.78L127.00 10.78L127.00 10.78Q127.26 9.95 127.58 9.13L127.58 9.13L127.58 9.13Q127.86 8.39 128.23 7.63L128.23 7.63L128.23 7.63Q128.60 6.87 129.04 6.15L129.04 6.15L129.04 6.15Q129.47 5.42 129.94 4.76L129.94 4.76L129.94 4.76Q130.41 4.10 130.89 3.56L130.89 3.56L130.89 3.56Q131.11 3.56 131.37 3.61L131.37 3.61L131.37 3.61Q131.63 3.67 131.87 3.76L131.87 3.76L131.87 3.76Q132.12 3.85 132.32 3.98L132.32 3.98L132.32 3.98Q132.52 4.10 132.65 4.23L132.65 4.23L132.65 4.23Q131.60 5.31 130.76 6.40L130.76 6.40L130.76 6.40Q129.92 7.50 129.43 8.47L129.43 8.47L129.43 8.47Q129.16 9.00 128.95 9.46L128.95 9.46L128.95 9.46Q128.73 9.93 128.55 10.38L128.55 10.38L128.55 10.38Q128.37 10.84 128.22 11.29L128.22 11.29L128.22 11.29Q128.07 11.75 127.95 12.25L127.95 12.25L127.95 12.25Q130.63 8.82 131.94 8.82L131.94 8.82L131.94 8.82Q132.30 8.82 132.72 9.06L132.72 9.06L132.72 9.06Q133.14 9.30 133.46 9.70L133.46 9.70L133.46 9.70Q133.03 10.18 132.57 10.85L132.57 10.85L132.57 10.85Q132.10 11.52 131.72 12.20L131.72 12.20L131.72 12.20Q131.33 12.88 131.09 13.46L131.09 13.46L131.09 13.46Q130.84 14.04 130.84 14.32L130.84 14.32L130.84 14.32Q130.84 14.46 130.89 14.51L130.89 14.51L130.89 14.51Q130.93 14.56 131.07 14.56L131.07 14.56L131.07 14.56Q131.28 14.56 131.40 14.50L131.40 14.50L131.40 14.50Q131.53 14.45 131.56 14.45L131.56 14.45L131.56 14.45Q131.63 14.56 131.64 14.60L131.64 14.60L131.64 14.60Q131.66 14.64 131.66 14.67L131.66 14.67L131.66 14.67Q131.66 14.73 131.49 14.83L131.49 14.83L131.49 14.83Q131.32 14.94 131.09 15.04L131.09 15.04L131.09 15.04Q130.86 15.15 130.63 15.23L130.63 15.23L130.63 15.23Q130.41 15.32 130.30 15.32L130.30 15.32L130.30 15.32Q130.16 15.32 130.02 15.24L130.02 15.24L130.02 15.24Q129.88 15.16 129.77 15.04L129.77 15.04L129.77 15.04Q129.67 14.91 129.60 14.76L129.60 14.76L129.60 14.76Q129.54 14.60 129.54 14.43L129.54 14.43L129.54 14.43Q129.54 14.22 129.66 13.81L129.66 13.81L129.66 13.81Q129.78 13.40 129.99 12.85L129.99 12.85L129.99 12.85Q130.20 12.29 130.49 11.63L130.49 11.63L130.49 11.63Q130.79 10.98 131.12 10.29L131.12 10.29L131.12 10.29Q131.12 10.23 131.07 10.23L131.07 10.23L131.07 10.23Q131.03 10.23 130.85 10.35L130.85 10.35L130.85 10.35Q130.68 10.46 130.52 10.57L130.52 10.57L130.52 10.57Q130.02 10.95 129.51 11.50L129.51 11.50L129.51 11.50Q129.00 12.05 128.51 12.71L128.51 12.71L128.51 12.71Q128.03 13.37 127.60 14.11L127.60 14.11L127.60 14.11Q127.18 14.84 126.87 15.58L126.87 15.58L126.87 15.58Q126.83 15.68 126.74 15.76L126.74 15.76L126.74 15.76Q126.66 15.85 126.60 15.85L126.60 15.85L126.60 15.85Q126.56 15.85 126.48 15.75L126.48 15.75L126.48 15.75Q126.41 15.65 126.34 15.51L126.34 15.51L126.34 15.51Q126.28 15.36 126.22 15.20L126.22 15.20L126.22 15.20Q126.17 15.05 126.17 14.94ZM145.43 9.38L145.43 9.38L145.43 9.38Q145.38 10.25 145.12 10.87L145.12 10.87L145.12 10.87Q144.87 11.49 144.40 11.96L144.40 11.96L144.40 11.96Q143.93 12.43 143.26 12.81L143.26 12.81L143.26 12.81Q142.59 13.19 141.69 13.54L141.69 13.54L141.69 13.54Q141.69 13.62 141.69 13.71L141.69 13.71L141.69 13.71Q141.68 13.80 141.68 13.90L141.68 13.90L141.68 13.90Q141.68 14.08 141.71 14.28L141.71 14.28L141.71 14.28Q141.74 14.48 141.81 14.64L141.81 14.64L141.81 14.64Q141.88 14.81 142.00 14.92L142.00 14.92L142.00 14.92Q142.13 15.02 142.32 15.02L142.32 15.02L142.32 15.02Q142.70 15.02 143.07 14.85L143.07 14.85L143.07 14.85Q143.43 14.69 143.76 14.44L143.76 14.44L143.76 14.44Q144.09 14.20 144.38 13.91L144.38 13.91L144.38 13.91Q144.66 13.62 144.89 13.38L144.89 13.38L144.89 13.38Q145.03 13.51 145.12 13.62L145.12 13.62L145.12 13.62Q144.49 14.46 143.75 15.02L143.75 15.02L143.75 15.02Q143.00 15.57 142.32 15.72L142.32 15.72L142.32 15.72Q141.36 15.61 140.82 15.02L140.82 15.02L140.82 15.02Q140.28 14.42 140.28 13.58L140.28 13.58L140.28 13.58Q140.28 13.01 140.44 12.41L140.44 12.41L140.44 12.41Q140.60 11.82 140.89 11.26L140.89 11.26L140.89 11.26Q141.18 10.71 141.56 10.22L141.56 10.22L141.56 10.22Q141.95 9.73 142.39 9.37L142.39 9.37L142.39 9.37Q142.83 9.00 143.30 8.79L143.30 8.79L143.30 8.79Q143.77 8.58 144.23 8.58L144.23 8.58L144.23 8.58Q144.87 8.67 145.43 9.38ZM144.47 9.84L144.47 9.84L144.47 9.84Q144.09 9.90 143.68 10.15L143.68 10.15L143.68 10.15Q143.28 10.40 142.92 10.82L142.92 10.82L142.92 10.82Q142.56 11.24 142.27 11.80L142.27 11.80L142.27 11.80Q141.97 12.36 141.81 13.01L141.81 13.01L141.81 13.01Q142.93 12.45 143.67 11.63L143.67 11.63L143.67 11.63Q144.41 10.81 144.47 9.84ZM157.91 9.52L157.91 9.52L157.91 9.52Q158.05 9.52 158.24 9.57L158.24 9.57L158.24 9.57Q158.42 9.62 158.58 9.70L158.58 9.70L158.58 9.70Q158.73 9.77 158.84 9.86L158.84 9.86L158.84 9.86Q158.94 9.94 158.94 10.01L158.94 10.01L158.94 10.01Q158.66 10.60 158.42 11.19L158.42 11.19L158.42 11.19Q158.19 11.79 158.02 12.33L158.02 12.33L158.02 12.33Q157.85 12.88 157.76 13.36L157.76 13.36L157.76 13.36Q157.67 13.83 157.67 14.18L157.67 14.18L157.67 14.18Q157.67 14.57 157.75 14.83L157.75 14.83L157.75 14.83Q157.84 15.09 158.03 15.20L158.03 15.20L158.03 15.20Q157.86 15.32 157.60 15.39L157.60 15.39L157.60 15.39Q157.33 15.46 157.12 15.46L157.12 15.46L157.12 15.46Q156.37 15.46 156.37 14.42L156.37 14.42L156.37 14.42Q156.37 13.62 156.90 12.24L156.90 12.24L156.90 12.24Q156.62 12.88 156.25 13.45L156.25 13.45L156.25 13.45Q155.89 14.01 155.51 14.45L155.51 14.45L155.51 14.45Q155.13 14.88 154.75 15.15L154.75 15.15L154.75 15.15Q154.36 15.43 154.04 15.48L154.04 15.48L154.04 15.48Q153.52 15.46 153.20 14.99L153.20 14.99L153.20 14.99Q152.88 14.52 152.88 13.79L152.88 13.79L152.88 13.79Q152.88 13.01 153.22 12.14L153.22 12.14L153.22 12.14Q153.55 11.27 154.08 10.53L154.08 10.53L154.08 10.53Q154.60 9.79 155.22 9.29L155.22 9.29L155.22 9.29Q155.83 8.79 156.41 8.76L156.41 8.76L156.41 8.76Q156.55 8.81 156.72 8.93L156.72 8.93L156.72 8.93Q156.90 9.06 157.06 9.23L157.06 9.23L157.06 9.23Q157.22 9.39 157.33 9.57L157.33 9.57L157.33 9.57Q157.44 9.74 157.46 9.87L157.46 9.87L157.46 9.87Q156.90 9.95 156.30 10.42L156.30 10.42L156.30 10.42Q155.71 10.88 155.23 11.53L155.23 11.53L155.23 11.53Q154.74 12.18 154.43 12.92L154.43 12.92L154.43 12.92Q154.13 13.66 154.13 14.31L154.13 14.31L154.13 14.31Q154.13 14.57 154.32 14.64L154.32 14.64L154.32 14.64Q154.73 14.56 155.26 13.95L155.26 13.95L155.26 13.95Q155.79 13.34 156.55 12.07L156.55 12.07L156.55 12.07Q156.69 11.82 156.86 11.51L156.86 11.51L156.86 11.51Q157.04 11.20 157.22 10.86L157.22 10.86L157.22 10.86Q157.40 10.53 157.58 10.18L157.58 10.18L157.58 10.18Q157.75 9.84 157.91 9.52ZM166.64 14.28L166.64 14.28L166.64 14.28Q166.64 13.66 166.94 12.55L166.94 12.55L166.94 12.55Q167.23 11.44 167.76 9.95L167.76 9.95L167.76 9.95Q168.63 7.59 169.39 6.01L169.39 6.01L169.39 6.01Q170.16 4.44 170.88 3.56L170.88 3.56L170.88 3.56Q171.05 3.58 171.30 3.70L171.30 3.70L171.30 3.70Q171.54 3.81 171.78 3.94L171.78 3.94L171.78 3.94Q172.02 4.07 172.21 4.21L172.21 4.21L172.21 4.21Q172.40 4.35 172.45 4.44L172.45 4.44L172.45 4.44Q171.36 5.73 170.53 7.21L170.53 7.21L170.53 7.21Q169.71 8.69 169.02 10.61L169.02 10.61L169.02 10.61Q168.43 12.26 168.13 13.59L168.13 13.59L168.13 13.59Q167.82 14.91 167.82 15.79L167.82 15.79L167.82 15.79Q167.82 16.03 167.82 16.09L167.82 16.09L167.82 16.09Q167.82 16.14 167.83 16.20L167.83 16.20L167.83 16.20Q167.64 16.17 167.50 16.10L167.50 16.10L167.50 16.10Q167.36 16.03 167.31 15.93L167.31 15.93L167.31 15.93Q167.29 15.86 167.16 15.73L167.16 15.73L167.16 15.73Q167.03 15.60 166.94 15.53L166.94 15.53L166.94 15.53Q166.81 15.44 166.73 15.09L166.73 15.09L166.73 15.09Q166.64 14.73 166.64 14.28ZM178.58 9.81L177.79 9.81L177.79 9.81Q177.72 9.73 177.66 9.46L177.66 9.46L177.66 9.46Q177.60 9.18 177.60 8.99L177.60 8.99L177.60 8.99Q177.97 9.02 178.30 9.04L178.30 9.04L178.30 9.04Q178.64 9.06 178.92 9.07L178.92 9.07L178.92 9.07Q179.13 8.65 179.38 8.24L179.38 8.24L179.38 8.24Q179.62 7.83 179.85 7.48L179.85 7.48L179.85 7.48Q180.08 7.14 180.29 6.90L180.29 6.90L180.29 6.90Q180.49 6.66 180.60 6.59L180.60 6.59L180.60 6.59Q180.74 6.59 180.96 6.64L180.96 6.64L180.96 6.64Q181.17 6.69 181.40 6.77L181.40 6.77L181.40 6.77Q181.62 6.85 181.80 6.93L181.80 6.93L181.80 6.93Q181.99 7.01 182.06 7.10L182.06 7.10L182.06 7.10Q181.64 7.63 181.34 8.09L181.34 8.09L181.34 8.09Q181.03 8.54 180.68 9.13L180.68 9.13L180.68 9.13Q180.96 9.13 181.25 9.11L181.25 9.11L181.25 9.11Q181.54 9.10 181.83 9.07L181.83 9.07L181.83 9.07Q181.90 9.14 181.94 9.25L181.94 9.25L181.94 9.25Q181.99 9.35 181.99 9.46L181.99 9.46L181.99 9.46Q181.30 9.72 180.32 9.74L180.32 9.74L180.32 9.74Q179.97 10.42 179.70 11.08L179.70 11.08L179.70 11.08Q179.42 11.75 179.24 12.36L179.24 12.36L179.24 12.36Q179.05 12.98 178.94 13.52L178.94 13.52L178.94 13.52Q178.84 14.07 178.84 14.50L178.84 14.50L178.84 14.50Q178.84 15.12 179.30 15.19L179.30 15.19L179.30 15.19Q179.72 15.13 180.10 14.98L180.10 14.98L180.10 14.98Q180.47 14.83 180.77 14.59L180.77 14.59L180.77 14.59Q180.85 14.71 180.87 14.80L180.87 14.80L180.87 14.80Q180.78 14.92 180.58 15.09L180.58 15.09L180.58 15.09Q180.38 15.26 180.14 15.42L180.14 15.42L180.14 15.42Q179.90 15.58 179.68 15.69L179.68 15.69L179.68 15.69Q179.45 15.81 179.34 15.82L179.34 15.82L179.34 15.82Q178.99 15.81 178.64 15.67L178.64 15.67L178.64 15.67Q178.29 15.53 178.00 15.32L178.00 15.32L178.00 15.32Q177.72 15.11 177.53 14.85L177.53 14.85L177.53 14.85Q177.35 14.59 177.35 14.34L177.35 14.34L177.35 14.34Q177.35 14 177.44 13.49L177.44 13.49L177.44 13.49Q177.53 12.98 177.70 12.38L177.70 12.38L177.70 12.38Q177.87 11.77 178.09 11.12L178.09 11.12L178.09 11.12Q178.32 10.46 178.58 9.81L178.58 9.81ZM188.87 14.94L188.87 14.94L188.87 14.94Q188.87 14.45 188.97 13.78L188.97 13.78L188.97 13.78Q189.07 13.12 189.26 12.36L189.26 12.36L189.26 12.36Q189.45 11.61 189.71 10.78L189.71 10.78L189.71 10.78Q189.97 9.95 190.29 9.13L190.29 9.13L190.29 9.13Q190.57 8.39 190.94 7.63L190.94 7.63L190.94 7.63Q191.31 6.87 191.74 6.15L191.74 6.15L191.74 6.15Q192.18 5.42 192.65 4.76L192.65 4.76L192.65 4.76Q193.12 4.10 193.59 3.56L193.59 3.56L193.59 3.56Q193.82 3.56 194.08 3.61L194.08 3.61L194.08 3.61Q194.33 3.67 194.58 3.76L194.58 3.76L194.58 3.76Q194.82 3.85 195.03 3.98L195.03 3.98L195.03 3.98Q195.23 4.10 195.36 4.23L195.36 4.23L195.36 4.23Q194.31 5.31 193.47 6.40L193.47 6.40L193.47 6.40Q192.63 7.50 192.14 8.47L192.14 8.47L192.14 8.47Q191.87 9.00 191.65 9.46L191.65 9.46L191.65 9.46Q191.44 9.93 191.25 10.38L191.25 10.38L191.25 10.38Q191.07 10.84 190.93 11.29L190.93 11.29L190.93 11.29Q190.78 11.75 190.65 12.25L190.65 12.25L190.65 12.25Q193.34 8.82 194.64 8.82L194.64 8.82L194.64 8.82Q195.01 8.82 195.43 9.06L195.43 9.06L195.43 9.06Q195.85 9.30 196.17 9.70L196.17 9.70L196.17 9.70Q195.73 10.18 195.27 10.85L195.27 10.85L195.27 10.85Q194.81 11.52 194.43 12.20L194.43 12.20L194.43 12.20Q194.04 12.88 193.80 13.46L193.80 13.46L193.80 13.46Q193.55 14.04 193.55 14.32L193.55 14.32L193.55 14.32Q193.55 14.46 193.59 14.51L193.59 14.51L193.59 14.51Q193.63 14.56 193.77 14.56L193.77 14.56L193.77 14.56Q193.98 14.56 194.11 14.50L194.11 14.50L194.11 14.50Q194.24 14.45 194.26 14.45L194.26 14.45L194.26 14.45Q194.33 14.56 194.35 14.60L194.35 14.60L194.35 14.60Q194.36 14.64 194.36 14.67L194.36 14.67L194.36 14.67Q194.36 14.73 194.19 14.83L194.19 14.83L194.19 14.83Q194.03 14.94 193.80 15.04L193.80 15.04L193.80 15.04Q193.56 15.15 193.34 15.23L193.34 15.23L193.34 15.23Q193.12 15.32 193.00 15.32L193.00 15.32L193.00 15.32Q192.86 15.32 192.72 15.24L192.72 15.24L192.72 15.24Q192.58 15.16 192.48 15.04L192.48 15.04L192.48 15.04Q192.37 14.91 192.31 14.76L192.31 14.76L192.31 14.76Q192.25 14.60 192.25 14.43L192.25 14.43L192.25 14.43Q192.25 14.22 192.37 13.81L192.37 13.81L192.37 13.81Q192.49 13.40 192.70 12.85L192.70 12.85L192.70 12.85Q192.91 12.29 193.20 11.63L193.20 11.63L193.20 11.63Q193.49 10.98 193.83 10.29L193.83 10.29L193.83 10.29Q193.83 10.23 193.77 10.23L193.77 10.23L193.77 10.23Q193.73 10.23 193.56 10.35L193.56 10.35L193.56 10.35Q193.38 10.46 193.23 10.57L193.23 10.57L193.23 10.57Q192.72 10.95 192.21 11.50L192.21 11.50L192.21 11.50Q191.70 12.05 191.22 12.71L191.22 12.71L191.22 12.71Q190.74 13.37 190.31 14.11L190.31 14.11L190.31 14.11Q189.88 14.84 189.57 15.58L189.57 15.58L189.57 15.58Q189.53 15.68 189.45 15.76L189.45 15.76L189.45 15.76Q189.36 15.85 189.31 15.85L189.31 15.85L189.31 15.85Q189.27 15.85 189.19 15.75L189.19 15.75L189.19 15.75Q189.11 15.65 189.05 15.51L189.05 15.51L189.05 15.51Q188.99 15.36 188.93 15.20L188.93 15.20L188.93 15.20Q188.87 15.05 188.87 14.94ZM203.21 12.71L203.21 12.71L203.21 12.71Q203.21 11.91 203.54 11.16L203.54 11.16L203.54 11.16Q203.87 10.42 204.41 9.84L204.41 9.84L204.41 9.84Q204.95 9.25 205.64 8.90L205.64 8.90L205.64 8.90Q206.33 8.54 207.07 8.54L207.07 8.54L207.07 8.54Q207.80 8.54 208.19 8.90L208.19 8.90L208.19 8.90Q208.59 9.27 208.59 9.94L208.59 9.94L208.59 9.94Q208.59 10.26 208.50 10.56L208.50 10.56L208.50 10.56Q208.40 10.86 208.26 11.10L208.26 11.10L208.26 11.10Q208.11 11.34 207.91 11.49L207.91 11.49L207.91 11.49Q207.72 11.63 207.52 11.63L207.52 11.63L207.52 11.63Q207.35 11.63 207.18 11.53L207.18 11.53L207.18 11.53Q207.00 11.42 206.89 11.26L206.89 11.26L206.89 11.26Q207.83 10.40 207.83 9.70L207.83 9.70L207.83 9.70Q207.83 9.30 207.51 9.30L207.51 9.30L207.51 9.30Q207.23 9.30 206.81 9.56L206.81 9.56L206.81 9.56Q206.39 9.83 206.00 10.26L206.00 10.26L206.00 10.26Q205.39 10.93 205.08 11.75L205.08 11.75L205.08 11.75Q204.76 12.57 204.76 13.47L204.76 13.47L204.76 13.47Q204.76 14.60 205.27 14.83L205.27 14.83L205.27 14.83Q205.48 14.80 205.76 14.70L205.76 14.70L205.76 14.70Q206.04 14.60 206.36 14.44L206.36 14.44L206.36 14.44Q206.68 14.28 207.03 14.07L207.03 14.07L207.03 14.07Q207.37 13.86 207.69 13.62L207.69 13.62L207.69 13.62Q207.75 13.66 207.79 13.75L207.79 13.75L207.79 13.75Q207.83 13.83 207.83 13.90L207.83 13.90L207.83 13.90Q207.59 14.20 207.28 14.48L207.28 14.48L207.28 14.48Q206.98 14.76 206.64 14.99L206.64 14.99L206.64 14.99Q206.30 15.22 205.99 15.38L205.99 15.38L205.99 15.38Q205.67 15.54 205.44 15.58L205.44 15.58L205.44 15.58Q204.97 15.54 204.57 15.29L204.57 15.29L204.57 15.29Q204.16 15.05 203.86 14.66L203.86 14.66L203.86 14.66Q203.56 14.27 203.39 13.76L203.39 13.76L203.39 13.76Q203.21 13.26 203.21 12.71ZM220.84 9.52L220.84 9.52L220.84 9.52Q220.98 9.52 221.17 9.57L221.17 9.57L221.17 9.57Q221.35 9.62 221.51 9.70L221.51 9.70L221.51 9.70Q221.66 9.77 221.77 9.86L221.77 9.86L221.77 9.86Q221.87 9.94 221.87 10.01L221.87 10.01L221.87 10.01Q221.59 10.60 221.35 11.19L221.35 11.19L221.35 11.19Q221.12 11.79 220.95 12.33L220.95 12.33L220.95 12.33Q220.78 12.88 220.69 13.36L220.69 13.36L220.69 13.36Q220.60 13.83 220.60 14.18L220.60 14.18L220.60 14.18Q220.60 14.57 220.68 14.83L220.68 14.83L220.68 14.83Q220.77 15.09 220.96 15.20L220.96 15.20L220.96 15.20Q220.79 15.32 220.53 15.39L220.53 15.39L220.53 15.39Q220.26 15.46 220.05 15.46L220.05 15.46L220.05 15.46Q219.30 15.46 219.30 14.42L219.30 14.42L219.30 14.42Q219.30 13.62 219.83 12.24L219.83 12.24L219.83 12.24Q219.55 12.88 219.18 13.45L219.18 13.45L219.18 13.45Q218.82 14.01 218.44 14.45L218.44 14.45L218.44 14.45Q218.06 14.88 217.68 15.15L217.68 15.15L217.68 15.15Q217.29 15.43 216.97 15.48L216.97 15.48L216.97 15.48Q216.45 15.46 216.13 14.99L216.13 14.99L216.13 14.99Q215.81 14.52 215.81 13.79L215.81 13.79L215.81 13.79Q215.81 13.01 216.15 12.14L216.15 12.14L216.15 12.14Q216.48 11.27 217.01 10.53L217.01 10.53L217.01 10.53Q217.53 9.79 218.15 9.29L218.15 9.29L218.15 9.29Q218.76 8.79 219.34 8.76L219.34 8.76L219.34 8.76Q219.48 8.81 219.65 8.93L219.65 8.93L219.65 8.93Q219.83 9.06 219.99 9.23L219.99 9.23L219.99 9.23Q220.15 9.39 220.26 9.57L220.26 9.57L220.26 9.57Q220.37 9.74 220.39 9.87L220.39 9.87L220.39 9.87Q219.83 9.95 219.23 10.42L219.23 10.42L219.23 10.42Q218.64 10.88 218.16 11.53L218.16 11.53L218.16 11.53Q217.67 12.18 217.36 12.92L217.36 12.92L217.36 12.92Q217.06 13.66 217.06 14.31L217.06 14.31L217.06 14.31Q217.06 14.57 217.25 14.64L217.25 14.64L217.25 14.64Q217.66 14.56 218.19 13.95L218.19 13.95L218.19 13.95Q218.72 13.34 219.48 12.07L219.48 12.07L219.48 12.07Q219.62 11.82 219.79 11.51L219.79 11.51L219.79 11.51Q219.97 11.20 220.15 10.86L220.15 10.86L220.15 10.86Q220.33 10.53 220.51 10.18L220.51 10.18L220.51 10.18Q220.68 9.84 220.84 9.52ZM229.25 14.90L229.25 14.90L229.25 14.90Q229.32 14.49 229.50 13.82L229.50 13.82L229.50 13.82Q229.67 13.16 229.91 12.41L229.91 12.41L229.91 12.41Q230.15 11.66 230.41 10.91L230.41 10.91L230.41 10.91Q230.68 10.15 230.93 9.55L230.93 9.55L230.93 9.55Q231.11 9.11 231.25 8.87L231.25 8.87L231.25 8.87Q231.39 8.62 231.56 8.46L231.56 8.46L231.56 8.46Q231.76 8.48 231.97 8.55L231.97 8.55L231.97 8.55Q232.18 8.62 232.37 8.72L232.37 8.72L232.37 8.72Q232.57 8.82 232.72 8.93L232.72 8.93L232.72 8.93Q232.88 9.03 232.96 9.13L232.96 9.13L232.96 9.13Q232.58 9.58 232.30 10.15L232.30 10.15L232.30 10.15Q232.01 10.72 231.71 11.62L231.71 11.62L231.71 11.62Q232.47 10.95 233.05 10.33L233.05 10.33L233.05 10.33Q233.63 9.72 234.14 8.96L234.14 8.96L234.14 8.96Q234.22 8.89 234.43 8.89L234.43 8.89L234.43 8.89Q234.63 8.89 234.81 8.95L234.81 8.95L234.81 8.95Q234.99 9.02 235.06 9.13L235.06 9.13L235.06 9.13Q234.81 9.80 234.81 10.46L234.81 10.46L234.81 10.46Q234.81 11.07 234.99 11.38L234.99 11.38L234.99 11.38Q234.98 11.47 234.80 11.70L234.80 11.70L234.80 11.70Q234.63 11.94 234.42 12.15L234.42 12.15L234.42 12.15Q234.04 11.96 233.74 11.61L233.74 11.61L233.74 11.61Q233.45 11.27 233.31 10.86L233.31 10.86L233.31 10.86Q232.65 11.33 232.19 11.77L232.19 11.77L232.19 11.77Q231.73 12.21 231.40 12.75L231.40 12.75L231.40 12.75Q231.07 13.29 230.84 13.99L230.84 13.99L230.84 13.99Q230.61 14.69 230.40 15.65L230.40 15.65L230.40 15.65Q230.27 15.64 230.10 15.56L230.10 15.56L230.10 15.56Q229.92 15.48 229.75 15.37L229.75 15.37L229.75 15.37Q229.57 15.26 229.43 15.13L229.43 15.13L229.43 15.13Q229.29 15.01 229.25 14.90ZM247.24 9.38L247.24 9.38L247.24 9.38Q247.18 10.25 246.93 10.87L246.93 10.87L246.93 10.87Q246.68 11.49 246.21 11.96L246.21 11.96L246.21 11.96Q245.74 12.43 245.07 12.81L245.07 12.81L245.07 12.81Q244.40 13.19 243.50 13.54L243.50 13.54L243.50 13.54Q243.50 13.62 243.50 13.71L243.50 13.71L243.50 13.71Q243.49 13.80 243.49 13.90L243.49 13.90L243.49 13.90Q243.49 14.08 243.52 14.28L243.52 14.28L243.52 14.28Q243.54 14.48 243.61 14.64L243.61 14.64L243.61 14.64Q243.68 14.81 243.81 14.92L243.81 14.92L243.81 14.92Q243.94 15.02 244.13 15.02L244.13 15.02L244.13 15.02Q244.51 15.02 244.87 14.85L244.87 14.85L244.87 14.85Q245.24 14.69 245.57 14.44L245.57 14.44L245.57 14.44Q245.90 14.20 246.18 13.91L246.18 13.91L246.18 13.91Q246.47 13.62 246.69 13.38L246.69 13.38L246.69 13.38Q246.83 13.51 246.93 13.62L246.93 13.62L246.93 13.62Q246.30 14.46 245.55 15.02L245.55 15.02L245.55 15.02Q244.80 15.57 244.13 15.72L244.13 15.72L244.13 15.72Q243.17 15.61 242.63 15.02L242.63 15.02L242.63 15.02Q242.09 14.42 242.09 13.58L242.09 13.58L242.09 13.58Q242.09 13.01 242.25 12.41L242.25 12.41L242.25 12.41Q242.41 11.82 242.70 11.26L242.70 11.26L242.70 11.26Q242.98 10.71 243.37 10.22L243.37 10.22L243.37 10.22Q243.75 9.73 244.20 9.37L244.20 9.37L244.20 9.37Q244.64 9.00 245.11 8.79L245.11 8.79L245.11 8.79Q245.57 8.58 246.04 8.58L246.04 8.58L246.04 8.58Q246.68 8.67 247.24 9.38ZM246.27 9.84L246.27 9.84L246.27 9.84Q245.90 9.90 245.49 10.15L245.49 10.15L245.49 10.15Q245.08 10.40 244.73 10.82L244.73 10.82L244.73 10.82Q244.37 11.24 244.08 11.80L244.08 11.80L244.08 11.80Q243.78 12.36 243.61 13.01L243.61 13.01L243.61 13.01Q244.73 12.45 245.48 11.63L245.48 11.63L245.48 11.63Q246.22 10.81 246.27 9.84ZM270.05 9.60L270.05 9.60L270.05 9.60Q270.03 9.87 269.96 10.16L269.96 10.16L269.96 10.16Q269.88 10.44 269.77 10.68L269.77 10.68L269.77 10.68Q269.65 10.91 269.53 11.06L269.53 11.06L269.53 11.06Q269.40 11.21 269.29 11.21L269.29 11.21L269.29 11.21Q269.14 11.20 269.11 11.00L269.11 11.00L269.11 11.00Q269.11 10.96 269.14 10.87L269.14 10.87L269.14 10.87Q269.18 10.78 269.22 10.67L269.22 10.67L269.22 10.67Q269.26 10.56 269.30 10.44L269.30 10.44L269.30 10.44Q269.33 10.33 269.33 10.25L269.33 10.25L269.33 10.25Q269.33 10.05 269.24 9.92L269.24 9.92L269.24 9.92Q269.15 9.79 269.00 9.79L269.00 9.79L269.00 9.79Q268.44 9.79 268.14 10.49L268.14 10.49L268.14 10.49Q267.85 11.19 267.85 12.54L267.85 12.54L267.85 12.54Q267.85 12.68 267.86 12.71L267.86 12.71L267.86 12.71Q268.16 12.70 268.39 12.69L268.39 12.69L268.39 12.69Q268.62 12.68 268.84 12.68L268.84 12.68L268.84 12.68Q268.86 12.71 268.86 12.80L268.86 12.80L268.86 12.80Q268.86 12.92 268.80 12.98L268.80 12.98L268.80 12.98Q268.48 13.05 268.29 13.10L268.29 13.10L268.29 13.10Q268.10 13.15 268.00 13.19L268.00 13.19L268.00 13.19Q267.90 13.23 267.88 13.28L267.88 13.28L267.88 13.28Q267.86 13.33 267.86 13.41L267.86 13.41L267.86 13.41Q267.86 13.52 267.87 13.64L267.87 13.64L267.87 13.64Q267.88 13.75 267.88 13.92L267.88 13.92L267.88 13.92Q267.88 15.09 267.24 15.81L267.24 15.81L267.24 15.81Q266.60 16.52 265.47 16.63L265.47 16.63L265.47 16.63Q265.27 16.62 265.06 16.52L265.06 16.52L265.06 16.52Q264.85 16.42 264.66 16.27L264.66 16.27L264.66 16.27Q264.47 16.11 264.33 15.93L264.33 15.93L264.33 15.93Q264.19 15.74 264.14 15.54L264.14 15.54L264.14 15.54Q264.14 15.01 264.36 14.53L264.36 14.53L264.36 14.53Q264.59 14.04 264.97 13.67L264.97 13.67L264.97 13.67Q265.36 13.30 265.88 13.07L265.88 13.07L265.88 13.07Q266.41 12.84 267.02 12.80L267.02 12.80L267.02 12.80Q267.02 12.45 266.95 12.11L266.95 12.11L266.95 12.11Q266.88 11.77 266.81 11.46L266.81 11.46L266.81 11.46Q266.73 11.14 266.66 10.84L266.66 10.84L266.66 10.84Q266.59 10.54 266.59 10.25L266.59 10.25L266.59 10.25Q266.59 9.87 266.74 9.50L266.74 9.50L266.74 9.50Q266.90 9.13 267.15 8.81L267.15 8.81L267.15 8.81Q267.40 8.50 267.74 8.27L267.74 8.27L267.74 8.27Q268.07 8.05 268.44 7.97L268.44 7.97L268.44 7.97Q268.59 8.01 268.85 8.21L268.85 8.21L268.85 8.21Q269.11 8.41 269.36 8.67L269.36 8.67L269.36 8.67Q269.61 8.92 269.81 9.18L269.81 9.18L269.81 9.18Q270.00 9.44 270.05 9.60ZM265.43 15.99L265.43 15.99L265.43 15.99Q265.76 15.85 266.06 15.58L266.06 15.58L266.06 15.58Q266.36 15.32 266.59 14.98L266.59 14.98L266.59 14.98Q266.81 14.64 266.95 14.27L266.95 14.27L266.95 14.27Q267.08 13.89 267.08 13.52L267.08 13.52L267.08 13.52Q266.80 13.57 266.46 13.78L266.46 13.78L266.46 13.78Q266.13 14 265.83 14.30L265.83 14.30L265.83 14.30Q265.54 14.60 265.34 14.92L265.34 14.92L265.34 14.92Q265.15 15.25 265.15 15.48L265.15 15.48L265.15 15.48Q265.15 15.79 265.43 15.99ZM278.68 9.81L277.89 9.81L277.89 9.81Q277.82 9.73 277.76 9.46L277.76 9.46L277.76 9.46Q277.70 9.18 277.70 8.99L277.70 8.99L277.70 8.99Q278.07 9.02 278.40 9.04L278.40 9.04L278.40 9.04Q278.74 9.06 279.02 9.07L279.02 9.07L279.02 9.07Q279.23 8.65 279.48 8.24L279.48 8.24L279.48 8.24Q279.72 7.83 279.95 7.48L279.95 7.48L279.95 7.48Q280.18 7.14 280.39 6.90L280.39 6.90L280.39 6.90Q280.59 6.66 280.70 6.59L280.70 6.59L280.70 6.59Q280.84 6.59 281.06 6.64L281.06 6.64L281.06 6.64Q281.27 6.69 281.50 6.77L281.50 6.77L281.50 6.77Q281.72 6.85 281.90 6.93L281.90 6.93L281.90 6.93Q282.09 7.01 282.16 7.10L282.16 7.10L282.16 7.10Q281.74 7.63 281.44 8.09L281.44 8.09L281.44 8.09Q281.13 8.54 280.78 9.13L280.78 9.13L280.78 9.13Q281.06 9.13 281.35 9.11L281.35 9.11L281.35 9.11Q281.64 9.10 281.93 9.07L281.93 9.07L281.93 9.07Q282.00 9.14 282.04 9.25L282.04 9.25L282.04 9.25Q282.09 9.35 282.09 9.46L282.09 9.46L282.09 9.46Q281.40 9.72 280.42 9.74L280.42 9.74L280.42 9.74Q280.07 10.42 279.80 11.08L279.80 11.08L279.80 11.08Q279.52 11.75 279.34 12.36L279.34 12.36L279.34 12.36Q279.15 12.98 279.04 13.52L279.04 13.52L279.04 13.52Q278.94 14.07 278.94 14.50L278.94 14.50L278.94 14.50Q278.94 15.12 279.40 15.19L279.40 15.19L279.40 15.19Q279.82 15.13 280.20 14.98L280.20 14.98L280.20 14.98Q280.57 14.83 280.87 14.59L280.87 14.59L280.87 14.59Q280.95 14.71 280.97 14.80L280.97 14.80L280.97 14.80Q280.88 14.92 280.68 15.09L280.68 15.09L280.68 15.09Q280.48 15.26 280.24 15.42L280.24 15.42L280.24 15.42Q280.00 15.58 279.78 15.69L279.78 15.69L279.78 15.69Q279.55 15.81 279.44 15.82L279.44 15.82L279.44 15.82Q279.09 15.81 278.74 15.67L278.74 15.67L278.74 15.67Q278.39 15.53 278.10 15.32L278.10 15.32L278.10 15.32Q277.82 15.11 277.63 14.85L277.63 14.85L277.63 14.85Q277.45 14.59 277.45 14.34L277.45 14.34L277.45 14.34Q277.45 14 277.54 13.49L277.54 13.49L277.54 13.49Q277.63 12.98 277.80 12.38L277.80 12.38L277.80 12.38Q277.97 11.77 278.19 11.12L278.19 11.12L278.19 11.12Q278.42 10.46 278.68 9.81L278.68 9.81ZM293.82 9.52L293.82 9.52L293.82 9.52Q293.96 9.52 294.15 9.57L294.15 9.57L294.15 9.57Q294.34 9.62 294.49 9.70L294.49 9.70L294.49 9.70Q294.64 9.77 294.75 9.86L294.75 9.86L294.75 9.86Q294.85 9.94 294.85 10.01L294.85 10.01L294.85 10.01Q294.57 10.60 294.34 11.19L294.34 11.19L294.34 11.19Q294.10 11.79 293.93 12.33L293.93 12.33L293.93 12.33Q293.76 12.88 293.67 13.36L293.67 13.36L293.67 13.36Q293.58 13.83 293.58 14.18L293.58 14.18L293.58 14.18Q293.58 14.57 293.66 14.83L293.66 14.83L293.66 14.83Q293.75 15.09 293.94 15.20L293.94 15.20L293.94 15.20Q293.78 15.32 293.51 15.39L293.51 15.39L293.51 15.39Q293.24 15.46 293.03 15.46L293.03 15.46L293.03 15.46Q292.28 15.46 292.28 14.42L292.28 14.42L292.28 14.42Q292.28 13.62 292.81 12.24L292.81 12.24L292.81 12.24Q292.53 12.88 292.17 13.45L292.17 13.45L292.17 13.45Q291.80 14.01 291.42 14.45L291.42 14.45L291.42 14.45Q291.05 14.88 290.66 15.15L290.66 15.15L290.66 15.15Q290.28 15.43 289.95 15.48L289.95 15.48L289.95 15.48Q289.44 15.46 289.11 14.99L289.11 14.99L289.11 14.99Q288.79 14.52 288.79 13.79L288.79 13.79L288.79 13.79Q288.79 13.01 289.13 12.14L289.13 12.14L289.13 12.14Q289.46 11.27 289.99 10.53L289.99 10.53L289.99 10.53Q290.51 9.79 291.13 9.29L291.13 9.29L291.13 9.29Q291.75 8.79 292.32 8.76L292.32 8.76L292.32 8.76Q292.46 8.81 292.64 8.93L292.64 8.93L292.64 8.93Q292.81 9.06 292.97 9.23L292.97 9.23L292.97 9.23Q293.13 9.39 293.24 9.57L293.24 9.57L293.24 9.57Q293.36 9.74 293.37 9.87L293.37 9.87L293.37 9.87Q292.81 9.95 292.22 10.42L292.22 10.42L292.22 10.42Q291.62 10.88 291.14 11.53L291.14 11.53L291.14 11.53Q290.65 12.18 290.35 12.92L290.35 12.92L290.35 12.92Q290.04 13.66 290.04 14.31L290.04 14.31L290.04 14.31Q290.04 14.57 290.23 14.64L290.23 14.64L290.23 14.64Q290.64 14.56 291.17 13.95L291.17 13.95L291.17 13.95Q291.70 13.34 292.46 12.07L292.46 12.07L292.46 12.07Q292.60 11.82 292.78 11.51L292.78 11.51L292.78 11.51Q292.95 11.20 293.13 10.86L293.13 10.86L293.13 10.86Q293.31 10.53 293.49 10.18L293.49 10.18L293.49 10.18Q293.66 9.84 293.82 9.52ZM303.13 19.22L303.13 19.22L303.13 19.22Q302.78 19.08 302.71 18.69L302.71 18.69L302.71 18.69Q302.65 18.31 302.23 18.07L302.23 18.07L302.23 18.07Q302.34 17.36 302.48 16.63L302.48 16.63L302.48 16.63Q302.62 15.90 302.84 14.97L302.84 14.97L302.84 14.97Q303.06 14.04 303.39 12.80L303.39 12.80L303.39 12.80Q303.72 11.56 304.22 9.80L304.22 9.80L304.22 9.80Q303.76 9.80 303.49 9.81L303.49 9.81L303.49 9.81Q303.23 9.83 302.97 9.87L302.97 9.87L302.97 9.87Q302.92 9.81 302.88 9.72L302.88 9.72L302.88 9.72Q302.85 9.62 302.85 9.53L302.85 9.53L302.85 9.53Q302.99 9.48 303.42 9.39L303.42 9.39L303.42 9.39Q303.86 9.30 304.37 9.23L304.37 9.23L304.37 9.23Q304.71 8.16 305.14 7.32L305.14 7.32L305.14 7.32Q305.58 6.47 306.08 5.87L306.08 5.87L306.08 5.87Q306.59 5.26 307.15 4.94L307.15 4.94L307.15 4.94Q307.71 4.62 308.28 4.62L308.28 4.62L308.28 4.62Q308.45 4.62 308.60 4.64L308.60 4.64L308.60 4.64Q308.76 4.66 308.84 4.66L308.84 4.66L308.84 4.66Q308.97 4.56 309.18 4.49L309.18 4.49L309.18 4.49Q309.39 4.41 309.54 4.41L309.54 4.41L309.54 4.41Q309.71 4.41 309.97 4.59L309.97 4.59L309.97 4.59Q309.86 4.79 309.74 5.12L309.74 5.12L309.74 5.12Q309.61 5.46 309.53 5.78L309.53 5.78L309.53 5.78Q309.18 6.82 308.78 7.13L308.78 7.13L308.78 7.13Q308.63 7.13 308.62 6.72L308.62 6.72L308.62 6.72Q308.60 6.43 308.53 6.15L308.53 6.15L308.53 6.15Q308.48 6.02 308.46 5.92L308.46 5.92L308.46 5.92Q308.43 5.82 308.43 5.67L308.43 5.67L308.43 5.67Q308.43 5.59 308.45 5.47L308.45 5.47L308.45 5.47Q308.46 5.35 308.50 5.07L308.50 5.07L308.50 5.07Q308.27 5.07 307.98 5.36L307.98 5.36L307.98 5.36Q307.69 5.66 307.38 6.20L307.38 6.20L307.38 6.20Q307.06 6.73 306.74 7.48L306.74 7.48L306.74 7.48Q306.42 8.22 306.12 9.11L306.12 9.11L307.30 9.07L307.30 9.07Q307.37 9.14 307.42 9.39L307.42 9.39L307.42 9.39Q307.47 9.63 307.48 9.90L307.48 9.90L305.94 9.81L305.94 9.81Q305.41 11.40 304.95 12.84L304.95 12.84L304.95 12.84Q304.49 14.28 304.12 15.50L304.12 15.50L304.12 15.50Q303.76 16.72 303.50 17.68L303.50 17.68L303.50 17.68Q303.24 18.63 303.13 19.22ZM314.92 19.22L314.92 19.22L314.92 19.22Q314.57 19.08 314.50 18.69L314.50 18.69L314.50 18.69Q314.44 18.31 314.02 18.07L314.02 18.07L314.02 18.07Q314.13 17.36 314.27 16.63L314.27 16.63L314.27 16.63Q314.41 15.90 314.63 14.97L314.63 14.97L314.63 14.97Q314.85 14.04 315.18 12.80L315.18 12.80L315.18 12.80Q315.50 11.56 316.01 9.80L316.01 9.80L316.01 9.80Q315.55 9.80 315.28 9.81L315.28 9.81L315.28 9.81Q315.01 9.83 314.76 9.87L314.76 9.87L314.76 9.87Q314.71 9.81 314.67 9.72L314.67 9.72L314.67 9.72Q314.64 9.62 314.64 9.53L314.64 9.53L314.64 9.53Q314.78 9.48 315.21 9.39L315.21 9.39L315.21 9.39Q315.64 9.30 316.16 9.23L316.16 9.23L316.16 9.23Q316.50 8.16 316.93 7.32L316.93 7.32L316.93 7.32Q317.37 6.47 317.87 5.87L317.87 5.87L317.87 5.87Q318.37 5.26 318.93 4.94L318.93 4.94L318.93 4.94Q319.49 4.62 320.07 4.62L320.07 4.62L320.07 4.62Q320.24 4.62 320.39 4.64L320.39 4.64L320.39 4.64Q320.54 4.66 320.63 4.66L320.63 4.66L320.63 4.66Q320.75 4.56 320.96 4.49L320.96 4.49L320.96 4.49Q321.17 4.41 321.33 4.41L321.33 4.41L321.33 4.41Q321.50 4.41 321.76 4.59L321.76 4.59L321.76 4.59Q321.65 4.79 321.52 5.12L321.52 5.12L321.52 5.12Q321.40 5.46 321.31 5.78L321.31 5.78L321.31 5.78Q320.96 6.82 320.57 7.13L320.57 7.13L320.57 7.13Q320.42 7.13 320.40 6.72L320.40 6.72L320.40 6.72Q320.39 6.43 320.32 6.15L320.32 6.15L320.32 6.15Q320.26 6.02 320.24 5.92L320.24 5.92L320.24 5.92Q320.22 5.82 320.22 5.67L320.22 5.67L320.22 5.67Q320.22 5.59 320.24 5.47L320.24 5.47L320.24 5.47Q320.25 5.35 320.29 5.07L320.29 5.07L320.29 5.07Q320.05 5.07 319.77 5.36L319.77 5.36L319.77 5.36Q319.48 5.66 319.17 6.20L319.17 6.20L319.17 6.20Q318.85 6.73 318.53 7.48L318.53 7.48L318.53 7.48Q318.21 8.22 317.91 9.11L317.91 9.11L319.09 9.07L319.09 9.07Q319.16 9.14 319.21 9.39L319.21 9.39L319.21 9.39Q319.26 9.63 319.27 9.90L319.27 9.90L317.73 9.81L317.73 9.81Q317.20 11.40 316.74 12.84L316.74 12.84L316.74 12.84Q316.27 14.28 315.91 15.50L315.91 15.50L315.91 15.50Q315.55 16.72 315.29 17.68L315.29 17.68L315.29 17.68Q315.03 18.63 314.92 19.22Z"></path></g></svg>