<svg data-v-423bf9ae="" xmlns="http://www.w3.org/2000/svg" viewBox="0 0 82.76162076691098 60" class="font"><!----><!----><!----><g data-v-423bf9ae="" id="59d81cba-dcf5-429f-ba71-e4820aef1852" fill="black" transform="matrix(4.743083146983607,0,0,4.743083146983607,-1.2806325934537952,-13.897233222041187)"><path d="M1.68 2.93L0.27 3.90L0.27 3.90Q0.60 4.09 0.55 6.92L0.55 6.92L0.55 6.92Q0.49 9.76 0.58 10.51L0.58 10.51L0.58 10.51Q0.67 11.25 1.79 12.14L1.79 12.14L1.79 12.14Q2.91 13.02 3.73 12.50L3.73 12.50L3.73 12.50Q4.55 11.98 5.21 11.29L5.21 11.29L5.21 11.29Q5.87 10.60 6.04 9.51L6.04 9.51L6.04 9.51Q6.21 8.43 5.81 7.57L5.81 7.57L5.81 7.57Q5.42 6.71 4.28 6.51L4.28 6.51L4.28 6.51Q3.13 6.31 2.13 7.53L2.13 7.53L2.13 7.53Q2.21 3.88 2.01 3.42L2.01 3.42L2.01 3.42Q1.81 2.97 1.68 2.93L1.68 2.93ZM2.91 7.73L2.91 7.73L2.91 7.73Q3.44 7.65 3.93 8.03L3.93 8.03L3.93 8.03Q4.42 8.40 4.50 9.37L4.50 9.37L4.50 9.37Q4.59 10.34 4.11 11.52L4.11 11.52L4.11 11.52Q3.01 11.94 2.49 11.26L2.49 11.26L2.49 11.26Q1.98 10.58 2.17 8.12L2.17 8.12L2.17 8.12Q2.38 7.81 2.91 7.73ZM9.39 6.62L9.39 6.62L9.39 6.62Q9.00 6.77 8.67 6.99L8.67 6.99L8.67 6.99Q8.33 7.21 7.98 7.49L7.98 7.49L7.98 7.49Q5.52 9.38 7.12 11.66L7.12 11.66L7.12 11.66Q7.57 12.21 8.04 12.45L8.04 12.45L8.04 12.45Q8.50 12.69 9.15 12.70L9.15 12.70L9.15 12.70Q9.80 12.70 10.48 12.07L10.48 12.07L10.48 12.07Q11.16 11.44 11.60 10.79L11.60 10.79L11.38 10.60L11.38 10.60Q11.21 10.82 10.94 11.07L10.94 11.07L10.94 11.07Q10.66 11.32 10.23 11.32L10.23 11.32L10.23 11.32Q9.80 11.33 9.29 10.99L9.29 10.99L9.29 10.99Q7.76 10.14 8.09 8.37L8.09 8.37L8.09 8.37Q8.27 7.62 9.13 7.85L9.13 7.85L9.13 7.85Q9.86 8.12 10.14 8.98L10.14 8.98L11.48 7.93L11.48 7.93Q11.46 7.33 11.03 7.00L11.03 7.00L11.03 7.00Q10.60 6.66 10.19 6.56L10.19 6.56L10.19 6.56Q9.77 6.47 9.39 6.62ZM13.60 6.58L12.04 7.85L12.11 8.07L12.11 8.07Q12.67 7.59 12.48 10.69L12.48 10.69L11.90 11.17L11.90 11.17Q12.11 11.39 12.50 11.69L12.50 11.69L12.50 11.69Q12.35 14.22 12.69 14.82L12.69 14.82L12.69 14.82Q13.04 15.42 13.64 15.58L13.64 15.58L14.89 14.32L14.76 14.10L14.76 14.10Q13.90 14.38 14.01 12.28L14.01 12.28L14.01 12.28Q14.78 12.50 15.48 12.09L15.48 12.09L15.48 12.09Q16.17 11.69 16.82 10.87L16.82 10.87L16.82 10.87Q17.47 10.05 17.66 9.45L17.66 9.45L17.66 9.45Q17.84 8.85 17.47 7.81L17.47 7.81L17.47 7.81Q17.09 6.77 15.55 6.49L15.55 6.49L14.12 7.72L14.12 7.72Q14.16 7.02 13.60 6.58L13.60 6.58ZM14.70 7.92L14.70 7.92Q15.70 8.03 16.11 9.19L16.11 9.19L16.11 9.19Q16.52 10.34 16.07 11.06L16.07 11.06L16.07 11.06Q15.61 11.77 14.12 10.75L14.12 10.75L14.10 8.14L14.70 7.92Z"></path></g><!----><!----></svg>